<?xml version="1.0" encoding="utf-8" standalone="no"?>
<!DOCTYPE svg PUBLIC "-//W3C//DTD SVG 1.1//EN"
  "http://www.w3.org/Graphics/SVG/1.1/DTD/svg11.dtd">
<svg xmlns:xlink="http://www.w3.org/1999/xlink" width="417.547805pt" height="274.137812pt" viewBox="0 0 417.547805 274.137812" xmlns="http://www.w3.org/2000/svg" version="1.1">
 <metadata>
  <rdf:RDF xmlns:dc="http://purl.org/dc/elements/1.1/" xmlns:cc="http://creativecommons.org/ns#" xmlns:rdf="http://www.w3.org/1999/02/22-rdf-syntax-ns#">
   <cc:Work>
    <dc:type rdf:resource="http://purl.org/dc/dcmitype/StillImage"/>
    <dc:date>2024-07-26T12:12:29.499257</dc:date>
    <dc:format>image/svg+xml</dc:format>
    <dc:creator>
     <cc:Agent>
      <dc:title>Matplotlib v3.8.3, https://matplotlib.org/</dc:title>
     </cc:Agent>
    </dc:creator>
   </cc:Work>
  </rdf:RDF>
 </metadata>
 <defs>
  <style type="text/css">*{stroke-linejoin: round; stroke-linecap: butt}</style>
 </defs>
 <g id="figure_1">
  <g id="patch_1">
   <path d="M 0 274.137812 
L 417.547805 274.137812 
L 417.547805 0 
L 0 0 
z
" style="fill: #ffffff"/>
  </g>
  <g id="axes_1">
   <g id="patch_2">
    <path d="M 51.908438 229.200938 
L 410.347805 229.200938 
L 410.347805 22.620937 
L 51.908438 22.620937 
z
" style="fill: #ffffff"/>
   </g>
   <g id="matplotlib.axis_1">
    <g id="xtick_1">
     <g id="line2d_1"/>
     <g id="text_1">
      <!-- MatchMS (CPU) -->
      <g style="fill: #262626" transform="translate(64.34052 242.121875) scale(0.13 -0.13)">
       <defs>
        <path id="LiberationSans-4d" d="M 4269 0 
L 4269 2938 
Q 4269 3097 4272 3262 
Q 4275 3428 4281 3566 
Q 4288 3725 4297 3875 
Q 4253 3716 4206 3559 
Q 4166 3425 4117 3273 
Q 4069 3122 4022 3000 
L 2884 0 
L 2466 0 
L 1313 3000 
Q 1294 3047 1273 3109 
Q 1253 3172 1229 3242 
Q 1206 3313 1182 3386 
Q 1159 3459 1138 3531 
Q 1084 3697 1034 3875 
Q 1038 3700 1044 3528 
Q 1050 3381 1053 3220 
Q 1056 3059 1056 2938 
L 1056 0 
L 525 0 
L 525 4403 
L 1309 4403 
L 2481 1350 
Q 2503 1288 2534 1189 
Q 2566 1091 2594 987 
Q 2622 884 2645 792 
Q 2669 700 2678 650 
Q 2688 700 2713 794 
Q 2738 888 2770 991 
Q 2803 1094 2834 1191 
Q 2866 1288 2891 1350 
L 4041 4403 
L 4806 4403 
L 4806 0 
L 4269 0 
z
" transform="scale(0.015625)"/>
        <path id="LiberationSans-61" d="M 1294 -63 
Q 784 -63 528 206 
Q 272 475 272 944 
Q 272 1278 398 1492 
Q 525 1706 729 1828 
Q 934 1950 1196 1997 
Q 1459 2044 1731 2050 
L 2491 2063 
L 2491 2247 
Q 2491 2456 2447 2603 
Q 2403 2750 2312 2840 
Q 2222 2931 2086 2973 
Q 1950 3016 1766 3016 
Q 1603 3016 1472 2992 
Q 1341 2969 1244 2908 
Q 1147 2847 1087 2742 
Q 1028 2638 1009 2478 
L 422 2531 
Q 453 2731 540 2898 
Q 628 3066 789 3187 
Q 950 3309 1192 3376 
Q 1434 3444 1778 3444 
Q 2416 3444 2737 3151 
Q 3059 2859 3059 2306 
L 3059 850 
Q 3059 600 3125 473 
Q 3191 347 3375 347 
Q 3422 347 3469 353 
Q 3516 359 3559 369 
L 3559 19 
Q 3453 -6 3348 -18 
Q 3244 -31 3125 -31 
Q 2966 -31 2852 11 
Q 2738 53 2666 139 
Q 2594 225 2556 351 
Q 2519 478 2509 647 
L 2491 647 
Q 2400 484 2292 353 
Q 2184 222 2040 130 
Q 1897 38 1714 -12 
Q 1531 -63 1294 -63 
z
M 1422 359 
Q 1691 359 1892 457 
Q 2094 556 2226 709 
Q 2359 863 2425 1044 
Q 2491 1225 2491 1391 
L 2491 1669 
L 1875 1656 
Q 1669 1653 1483 1626 
Q 1297 1600 1156 1522 
Q 1016 1444 933 1303 
Q 850 1163 850 934 
Q 850 659 998 509 
Q 1147 359 1422 359 
z
" transform="scale(0.015625)"/>
        <path id="LiberationSans-74" d="M 1731 25 
Q 1603 -9 1470 -29 
Q 1338 -50 1163 -50 
Q 488 -50 488 716 
L 488 2972 
L 97 2972 
L 97 3381 
L 509 3381 
L 675 4138 
L 1050 4138 
L 1050 3381 
L 1675 3381 
L 1675 2972 
L 1050 2972 
L 1050 838 
Q 1050 594 1129 495 
Q 1209 397 1406 397 
Q 1488 397 1564 409 
Q 1641 422 1731 441 
L 1731 25 
z
" transform="scale(0.015625)"/>
        <path id="LiberationSans-63" d="M 859 1706 
Q 859 1416 901 1172 
Q 944 928 1044 751 
Q 1144 575 1308 478 
Q 1472 381 1713 381 
Q 2013 381 2214 543 
Q 2416 706 2463 1044 
L 3031 1006 
Q 3003 797 2909 603 
Q 2816 409 2655 262 
Q 2494 116 2262 26 
Q 2031 -63 1728 -63 
Q 1331 -63 1053 71 
Q 775 206 601 442 
Q 428 678 350 998 
Q 272 1319 272 1694 
Q 272 2034 328 2295 
Q 384 2556 486 2751 
Q 588 2947 725 3080 
Q 863 3213 1023 3292 
Q 1184 3372 1362 3408 
Q 1541 3444 1722 3444 
Q 2006 3444 2228 3366 
Q 2450 3288 2611 3152 
Q 2772 3016 2872 2831 
Q 2972 2647 3013 2434 
L 2434 2391 
Q 2391 2672 2212 2837 
Q 2034 3003 1706 3003 
Q 1466 3003 1305 2923 
Q 1144 2844 1044 2683 
Q 944 2522 901 2278 
Q 859 2034 859 1706 
z
" transform="scale(0.015625)"/>
        <path id="LiberationSans-68" d="M 991 2803 
Q 1084 2975 1193 3095 
Q 1303 3216 1434 3294 
Q 1566 3372 1722 3408 
Q 1878 3444 2072 3444 
Q 2397 3444 2605 3356 
Q 2813 3269 2933 3111 
Q 3053 2953 3098 2734 
Q 3144 2516 3144 2253 
L 3144 0 
L 2578 0 
L 2578 2144 
Q 2578 2359 2551 2521 
Q 2525 2684 2450 2792 
Q 2375 2900 2237 2954 
Q 2100 3009 1881 3009 
Q 1681 3009 1520 2937 
Q 1359 2866 1245 2734 
Q 1131 2603 1068 2415 
Q 1006 2228 1006 1994 
L 1006 0 
L 444 0 
L 444 4638 
L 1006 4638 
L 1006 3431 
Q 1006 3328 1003 3225 
Q 1000 3122 995 3034 
Q 991 2947 987 2886 
Q 984 2825 981 2803 
L 991 2803 
z
" transform="scale(0.015625)"/>
        <path id="LiberationSans-53" d="M 3975 1216 
Q 3975 938 3867 703 
Q 3759 469 3534 298 
Q 3309 128 2967 32 
Q 2625 -63 2156 -63 
Q 1334 -63 875 225 
Q 416 513 291 1056 
L 869 1172 
Q 913 1000 1003 859 
Q 1094 719 1248 617 
Q 1403 516 1631 459 
Q 1859 403 2178 403 
Q 2444 403 2666 448 
Q 2888 494 3047 587 
Q 3206 681 3295 829 
Q 3384 978 3384 1184 
Q 3384 1400 3286 1534 
Q 3188 1669 3009 1756 
Q 2831 1844 2584 1903 
Q 2338 1963 2038 2031 
Q 1853 2072 1667 2120 
Q 1481 2169 1311 2236 
Q 1141 2303 991 2393 
Q 841 2484 731 2611 
Q 622 2738 559 2905 
Q 497 3072 497 3291 
Q 497 3603 623 3826 
Q 750 4050 975 4194 
Q 1200 4338 1506 4403 
Q 1813 4469 2169 4469 
Q 2578 4469 2868 4405 
Q 3159 4341 3359 4212 
Q 3559 4084 3679 3895 
Q 3800 3706 3872 3456 
L 3284 3353 
Q 3241 3513 3158 3638 
Q 3075 3763 2940 3847 
Q 2806 3931 2614 3975 
Q 2422 4019 2163 4019 
Q 1856 4019 1648 3964 
Q 1441 3909 1314 3815 
Q 1188 3722 1133 3595 
Q 1078 3469 1078 3322 
Q 1078 3125 1176 2998 
Q 1275 2872 1444 2787 
Q 1613 2703 1834 2647 
Q 2056 2591 2306 2534 
Q 2509 2488 2711 2439 
Q 2913 2391 3097 2323 
Q 3281 2256 3442 2165 
Q 3603 2075 3722 1944 
Q 3841 1813 3908 1634 
Q 3975 1456 3975 1216 
z
" transform="scale(0.015625)"/>
        <path id="LiberationSans-20" transform="scale(0.015625)"/>
        <path id="LiberationSans-28" d="M 397 1663 
Q 397 2097 462 2494 
Q 528 2891 668 3256 
Q 809 3622 1028 3965 
Q 1247 4309 1550 4638 
L 2094 4638 
Q 1800 4309 1586 3964 
Q 1372 3619 1234 3251 
Q 1097 2884 1030 2487 
Q 963 2091 963 1656 
Q 963 1222 1030 825 
Q 1097 428 1234 59 
Q 1372 -309 1586 -653 
Q 1800 -997 2094 -1325 
L 1550 -1325 
Q 1247 -997 1028 -653 
Q 809 -309 668 56 
Q 528 422 462 817 
Q 397 1213 397 1650 
L 397 1663 
z
" transform="scale(0.015625)"/>
        <path id="LiberationSans-43" d="M 2475 3981 
Q 2100 3981 1811 3856 
Q 1522 3731 1326 3500 
Q 1131 3269 1031 2944 
Q 931 2619 931 2222 
Q 931 1825 1039 1495 
Q 1147 1166 1348 928 
Q 1550 691 1842 559 
Q 2134 428 2500 428 
Q 2756 428 2967 495 
Q 3178 563 3348 684 
Q 3519 806 3653 973 
Q 3788 1141 3891 1344 
L 4378 1100 
Q 4259 853 4084 640 
Q 3909 428 3673 272 
Q 3438 116 3139 26 
Q 2841 -63 2472 -63 
Q 1938 -63 1536 107 
Q 1134 278 864 583 
Q 594 888 459 1306 
Q 325 1725 325 2222 
Q 325 2738 467 3153 
Q 609 3569 882 3861 
Q 1156 4153 1556 4311 
Q 1956 4469 2469 4469 
Q 3172 4469 3644 4194 
Q 4116 3919 4338 3378 
L 3772 3191 
Q 3709 3347 3603 3489 
Q 3497 3631 3337 3740 
Q 3178 3850 2964 3915 
Q 2750 3981 2475 3981 
z
" transform="scale(0.015625)"/>
        <path id="LiberationSans-50" d="M 3931 3078 
Q 3931 2791 3836 2542 
Q 3741 2294 3552 2111 
Q 3363 1928 3078 1822 
Q 2794 1716 2416 1716 
L 1122 1716 
L 1122 0 
L 525 0 
L 525 4403 
L 2378 4403 
Q 2769 4403 3059 4308 
Q 3350 4213 3544 4039 
Q 3738 3866 3834 3620 
Q 3931 3375 3931 3078 
z
M 3331 3072 
Q 3331 3491 3075 3708 
Q 2819 3925 2306 3925 
L 1122 3925 
L 1122 2188 
L 2331 2188 
Q 2847 2188 3089 2416 
Q 3331 2644 3331 3072 
z
" transform="scale(0.015625)"/>
        <path id="LiberationSans-55" d="M 2284 -63 
Q 1922 -63 1597 34 
Q 1272 131 1026 336 
Q 781 541 637 855 
Q 494 1169 494 1600 
L 494 4403 
L 1091 4403 
L 1091 1650 
Q 1091 1316 1180 1083 
Q 1269 850 1428 703 
Q 1588 556 1805 489 
Q 2022 422 2281 422 
Q 2538 422 2766 490 
Q 2994 559 3166 709 
Q 3338 859 3436 1101 
Q 3534 1344 3534 1691 
L 3534 4403 
L 4128 4403 
L 4128 1656 
Q 4128 1216 3983 892 
Q 3838 569 3588 356 
Q 3338 144 3002 40 
Q 2666 -63 2284 -63 
z
" transform="scale(0.015625)"/>
        <path id="LiberationSans-29" d="M 1734 1650 
Q 1734 1213 1668 817 
Q 1603 422 1462 56 
Q 1322 -309 1103 -653 
Q 884 -997 581 -1325 
L 38 -1325 
Q 331 -997 545 -653 
Q 759 -309 896 59 
Q 1034 428 1101 825 
Q 1169 1222 1169 1656 
Q 1169 2091 1101 2487 
Q 1034 2884 896 3251 
Q 759 3619 545 3964 
Q 331 4309 38 4638 
L 581 4638 
Q 884 4309 1103 3965 
Q 1322 3622 1462 3256 
Q 1603 2891 1668 2494 
Q 1734 2097 1734 1663 
L 1734 1650 
z
" transform="scale(0.015625)"/>
       </defs>
       <use xlink:href="#LiberationSans-4d"/>
       <use xlink:href="#LiberationSans-61" x="83.300781"/>
       <use xlink:href="#LiberationSans-74" x="138.916016"/>
       <use xlink:href="#LiberationSans-63" x="166.699219"/>
       <use xlink:href="#LiberationSans-68" x="216.699219"/>
       <use xlink:href="#LiberationSans-4d" x="272.314453"/>
       <use xlink:href="#LiberationSans-53" x="355.615234"/>
       <use xlink:href="#LiberationSans-20" x="422.314453"/>
       <use xlink:href="#LiberationSans-28" x="450.097656"/>
       <use xlink:href="#LiberationSans-43" x="483.398438"/>
       <use xlink:href="#LiberationSans-50" x="555.615234"/>
       <use xlink:href="#LiberationSans-55" x="622.314453"/>
       <use xlink:href="#LiberationSans-29" x="694.53125"/>
      </g>
     </g>
    </g>
    <g id="xtick_2">
     <g id="line2d_2"/>
     <g id="text_2">
      <!-- SimMS (RTX4090) -->
      <g style="fill: #262626" transform="translate(176.70484 242.121875) scale(0.13 -0.13)">
       <defs>
        <path id="LiberationSans-69" d="M 428 4100 
L 428 4638 
L 991 4638 
L 991 4100 
L 428 4100 
z
M 428 0 
L 428 3381 
L 991 3381 
L 991 0 
L 428 0 
z
" transform="scale(0.015625)"/>
        <path id="LiberationSans-6d" d="M 2400 0 
L 2400 2144 
Q 2400 2391 2369 2556 
Q 2338 2722 2264 2823 
Q 2191 2925 2072 2967 
Q 1953 3009 1781 3009 
Q 1603 3009 1459 2939 
Q 1316 2869 1214 2736 
Q 1113 2603 1058 2408 
Q 1003 2213 1003 1959 
L 1003 0 
L 444 0 
L 444 2659 
Q 444 2766 442 2883 
Q 441 3000 437 3104 
Q 434 3209 431 3284 
Q 428 3359 425 3381 
L 956 3381 
Q 959 3366 962 3297 
Q 966 3228 970 3139 
Q 975 3050 978 2958 
Q 981 2866 981 2803 
L 991 2803 
Q 1066 2950 1153 3069 
Q 1241 3188 1358 3270 
Q 1475 3353 1626 3398 
Q 1778 3444 1978 3444 
Q 2363 3444 2586 3291 
Q 2809 3138 2897 2803 
L 2906 2803 
Q 2981 2950 3075 3069 
Q 3169 3188 3294 3270 
Q 3419 3353 3575 3398 
Q 3731 3444 3931 3444 
Q 4188 3444 4373 3375 
Q 4559 3306 4678 3162 
Q 4797 3019 4853 2792 
Q 4909 2566 4909 2253 
L 4909 0 
L 4353 0 
L 4353 2144 
Q 4353 2391 4322 2556 
Q 4291 2722 4217 2823 
Q 4144 2925 4025 2967 
Q 3906 3009 3734 3009 
Q 3556 3009 3412 2942 
Q 3269 2875 3167 2744 
Q 3066 2613 3011 2416 
Q 2956 2219 2956 1959 
L 2956 0 
L 2400 0 
z
" transform="scale(0.015625)"/>
        <path id="LiberationSans-52" d="M 3638 0 
L 2494 1828 
L 1122 1828 
L 1122 0 
L 525 0 
L 525 4403 
L 2597 4403 
Q 2972 4403 3261 4317 
Q 3550 4231 3747 4068 
Q 3944 3906 4047 3672 
Q 4150 3438 4150 3144 
Q 4150 2934 4089 2731 
Q 4028 2528 3897 2359 
Q 3766 2191 3562 2069 
Q 3359 1947 3075 1897 
L 4325 0 
L 3638 0 
z
M 3550 3138 
Q 3550 3338 3481 3484 
Q 3413 3631 3281 3729 
Q 3150 3828 2962 3876 
Q 2775 3925 2538 3925 
L 1122 3925 
L 1122 2300 
L 2563 2300 
Q 2819 2300 3006 2364 
Q 3194 2428 3314 2540 
Q 3434 2653 3492 2806 
Q 3550 2959 3550 3138 
z
" transform="scale(0.015625)"/>
        <path id="LiberationSans-54" d="M 2250 3916 
L 2250 0 
L 1656 0 
L 1656 3916 
L 144 3916 
L 144 4403 
L 3763 4403 
L 3763 3916 
L 2250 3916 
z
" transform="scale(0.015625)"/>
        <path id="LiberationSans-58" d="M 3475 0 
L 2153 1925 
L 803 0 
L 144 0 
L 1819 2288 
L 272 4403 
L 931 4403 
L 2156 2675 
L 3347 4403 
L 4006 4403 
L 2500 2309 
L 4134 0 
L 3475 0 
z
" transform="scale(0.015625)"/>
        <path id="LiberationSans-34" d="M 2753 997 
L 2753 0 
L 2222 0 
L 2222 997 
L 147 997 
L 147 1434 
L 2163 4403 
L 2753 4403 
L 2753 1441 
L 3372 1441 
L 3372 997 
L 2753 997 
z
M 2222 3769 
Q 2216 3753 2191 3708 
Q 2166 3663 2134 3606 
Q 2103 3550 2070 3492 
Q 2038 3434 2013 3397 
L 884 1734 
Q 869 1709 839 1668 
Q 809 1628 778 1586 
Q 747 1544 715 1503 
Q 684 1463 666 1441 
L 2222 1441 
L 2222 3769 
z
" transform="scale(0.015625)"/>
        <path id="LiberationSans-30" d="M 3309 2203 
Q 3309 1569 3189 1136 
Q 3069 703 2861 436 
Q 2653 169 2372 53 
Q 2091 -63 1772 -63 
Q 1450 -63 1172 53 
Q 894 169 689 434 
Q 484 700 367 1133 
Q 250 1566 250 2203 
Q 250 2869 367 3305 
Q 484 3741 690 4000 
Q 897 4259 1178 4364 
Q 1459 4469 1791 4469 
Q 2106 4469 2382 4364 
Q 2659 4259 2865 4000 
Q 3072 3741 3190 3305 
Q 3309 2869 3309 2203 
z
M 2738 2203 
Q 2738 2728 2675 3076 
Q 2613 3425 2491 3633 
Q 2369 3841 2192 3927 
Q 2016 4013 1791 4013 
Q 1553 4013 1372 3925 
Q 1191 3838 1067 3630 
Q 944 3422 881 3073 
Q 819 2725 819 2203 
Q 819 1697 883 1350 
Q 947 1003 1070 792 
Q 1194 581 1372 489 
Q 1550 397 1778 397 
Q 2000 397 2178 489 
Q 2356 581 2479 792 
Q 2603 1003 2670 1350 
Q 2738 1697 2738 2203 
z
" transform="scale(0.015625)"/>
        <path id="LiberationSans-39" d="M 3256 2291 
Q 3256 1703 3145 1261 
Q 3034 819 2828 525 
Q 2622 231 2326 84 
Q 2031 -63 1663 -63 
Q 1409 -63 1206 -11 
Q 1003 41 843 150 
Q 684 259 571 434 
Q 459 609 391 856 
L 928 941 
Q 1016 656 1202 523 
Q 1388 391 1672 391 
Q 1900 391 2089 498 
Q 2278 606 2411 822 
Q 2544 1038 2619 1363 
Q 2694 1688 2700 2125 
Q 2634 1978 2520 1862 
Q 2406 1747 2261 1667 
Q 2116 1588 1947 1545 
Q 1778 1503 1606 1503 
Q 1306 1503 1064 1611 
Q 822 1719 653 1912 
Q 484 2106 392 2379 
Q 300 2653 300 2988 
Q 300 3328 398 3603 
Q 497 3878 684 4070 
Q 872 4263 1145 4366 
Q 1419 4469 1766 4469 
Q 2500 4469 2878 3925 
Q 3256 3381 3256 2291 
z
M 2644 2834 
Q 2644 3078 2586 3293 
Q 2528 3509 2414 3668 
Q 2300 3828 2133 3920 
Q 1966 4013 1747 4013 
Q 1544 4013 1381 3941 
Q 1219 3869 1106 3736 
Q 994 3603 933 3412 
Q 872 3222 872 2988 
Q 872 2766 926 2575 
Q 981 2384 1090 2245 
Q 1200 2106 1362 2026 
Q 1525 1947 1741 1947 
Q 1897 1947 2058 2000 
Q 2219 2053 2348 2162 
Q 2478 2272 2561 2439 
Q 2644 2606 2644 2834 
z
" transform="scale(0.015625)"/>
       </defs>
       <use xlink:href="#LiberationSans-53"/>
       <use xlink:href="#LiberationSans-69" x="66.699219"/>
       <use xlink:href="#LiberationSans-6d" x="88.916016"/>
       <use xlink:href="#LiberationSans-4d" x="172.216797"/>
       <use xlink:href="#LiberationSans-53" x="255.517578"/>
       <use xlink:href="#LiberationSans-20" x="322.216797"/>
       <use xlink:href="#LiberationSans-28" x="350"/>
       <use xlink:href="#LiberationSans-52" x="383.300781"/>
       <use xlink:href="#LiberationSans-54" x="453.767578"/>
       <use xlink:href="#LiberationSans-58" x="514.851562"/>
       <use xlink:href="#LiberationSans-34" x="581.550781"/>
       <use xlink:href="#LiberationSans-30" x="637.166016"/>
       <use xlink:href="#LiberationSans-39" x="692.78125"/>
       <use xlink:href="#LiberationSans-30" x="748.396484"/>
       <use xlink:href="#LiberationSans-29" x="804.011719"/>
      </g>
     </g>
    </g>
    <g id="xtick_3">
     <g id="line2d_3"/>
     <g id="text_3">
      <!-- SimMS (A100) -->
      <g style="fill: #262626" transform="translate(308.349785 242.121875) scale(0.13 -0.13)">
       <defs>
        <path id="LiberationSans-41" d="M 3647 0 
L 3144 1288 
L 1138 1288 
L 631 0 
L 13 0 
L 1809 4403 
L 2488 4403 
L 4256 0 
L 3647 0 
z
M 2400 3206 
Q 2350 3331 2304 3459 
Q 2259 3588 2225 3692 
Q 2191 3797 2167 3867 
Q 2144 3938 2141 3953 
Q 2134 3938 2112 3866 
Q 2091 3794 2055 3687 
Q 2019 3581 1973 3453 
Q 1928 3325 1881 3200 
L 1319 1753 
L 2966 1753 
L 2400 3206 
z
" transform="scale(0.015625)"/>
        <path id="LiberationSans-31" d="M 488 0 
L 488 478 
L 1609 478 
L 1609 3866 
L 616 3156 
L 616 3688 
L 1656 4403 
L 2175 4403 
L 2175 478 
L 3247 478 
L 3247 0 
L 488 0 
z
" transform="scale(0.015625)"/>
       </defs>
       <use xlink:href="#LiberationSans-53"/>
       <use xlink:href="#LiberationSans-69" x="66.699219"/>
       <use xlink:href="#LiberationSans-6d" x="88.916016"/>
       <use xlink:href="#LiberationSans-4d" x="172.216797"/>
       <use xlink:href="#LiberationSans-53" x="255.517578"/>
       <use xlink:href="#LiberationSans-20" x="322.216797"/>
       <use xlink:href="#LiberationSans-28" x="350"/>
       <use xlink:href="#LiberationSans-41" x="383.300781"/>
       <use xlink:href="#LiberationSans-31" x="450"/>
       <use xlink:href="#LiberationSans-30" x="505.615234"/>
       <use xlink:href="#LiberationSans-30" x="561.230469"/>
       <use xlink:href="#LiberationSans-29" x="616.845703"/>
      </g>
     </g>
    </g>
    <g id="text_4">
     <!-- Method (Hardware) -->
     <g style="fill: #262626" transform="translate(175.139762 264.240313) scale(0.13 -0.13)">
      <defs>
       <path id="LiberationSans-65" d="M 863 1572 
Q 863 1306 917 1082 
Q 972 859 1086 698 
Q 1200 538 1378 448 
Q 1556 359 1806 359 
Q 2172 359 2392 506 
Q 2613 653 2691 878 
L 3184 738 
Q 3131 597 3036 455 
Q 2941 313 2781 198 
Q 2622 84 2383 10 
Q 2144 -63 1806 -63 
Q 1056 -63 664 384 
Q 272 831 272 1713 
Q 272 2188 390 2517 
Q 509 2847 715 3053 
Q 922 3259 1197 3351 
Q 1472 3444 1784 3444 
Q 2209 3444 2495 3306 
Q 2781 3169 2954 2926 
Q 3128 2684 3201 2356 
Q 3275 2028 3275 1647 
L 3275 1572 
L 863 1572 
z
M 2694 2003 
Q 2647 2538 2422 2783 
Q 2197 3028 1775 3028 
Q 1634 3028 1479 2983 
Q 1325 2938 1194 2822 
Q 1063 2706 972 2507 
Q 881 2309 869 2003 
L 2694 2003 
z
" transform="scale(0.015625)"/>
       <path id="LiberationSans-6f" d="M 3291 1694 
Q 3291 806 2900 371 
Q 2509 -63 1766 -63 
Q 1413 -63 1134 43 
Q 856 150 664 369 
Q 472 588 370 917 
Q 269 1247 269 1694 
Q 269 3444 1784 3444 
Q 2178 3444 2464 3334 
Q 2750 3225 2933 3006 
Q 3116 2788 3203 2459 
Q 3291 2131 3291 1694 
z
M 2700 1694 
Q 2700 2088 2639 2344 
Q 2578 2600 2461 2753 
Q 2344 2906 2175 2967 
Q 2006 3028 1794 3028 
Q 1578 3028 1404 2964 
Q 1231 2900 1109 2745 
Q 988 2591 923 2334 
Q 859 2078 859 1694 
Q 859 1300 928 1042 
Q 997 784 1117 631 
Q 1238 478 1402 415 
Q 1566 353 1759 353 
Q 1975 353 2150 414 
Q 2325 475 2447 628 
Q 2569 781 2634 1040 
Q 2700 1300 2700 1694 
z
" transform="scale(0.015625)"/>
       <path id="LiberationSans-64" d="M 2566 544 
Q 2409 219 2151 78 
Q 1894 -63 1513 -63 
Q 872 -63 570 368 
Q 269 800 269 1675 
Q 269 3444 1513 3444 
Q 1897 3444 2153 3303 
Q 2409 3163 2566 2856 
L 2572 2856 
Q 2572 2888 2570 2955 
Q 2569 3022 2567 3095 
Q 2566 3169 2566 3234 
Q 2566 3300 2566 3328 
L 2566 4638 
L 3128 4638 
L 3128 697 
Q 3128 575 3129 462 
Q 3131 350 3134 256 
Q 3138 163 3141 95 
Q 3144 28 3147 0 
L 2609 0 
Q 2603 31 2598 89 
Q 2594 147 2589 222 
Q 2584 297 2581 380 
Q 2578 463 2578 544 
L 2566 544 
z
M 859 1694 
Q 859 1344 903 1094 
Q 947 844 1044 683 
Q 1141 522 1291 447 
Q 1441 372 1656 372 
Q 1878 372 2048 444 
Q 2219 516 2333 677 
Q 2447 838 2506 1097 
Q 2566 1356 2566 1731 
Q 2566 2091 2506 2339 
Q 2447 2588 2331 2741 
Q 2216 2894 2048 2961 
Q 1881 3028 1663 3028 
Q 1456 3028 1306 2956 
Q 1156 2884 1056 2725 
Q 956 2566 907 2311 
Q 859 2056 859 1694 
z
" transform="scale(0.015625)"/>
       <path id="LiberationSans-48" d="M 3503 0 
L 3503 2041 
L 1122 2041 
L 1122 0 
L 525 0 
L 525 4403 
L 1122 4403 
L 1122 2541 
L 3503 2541 
L 3503 4403 
L 4100 4403 
L 4100 0 
L 3503 0 
z
" transform="scale(0.015625)"/>
       <path id="LiberationSans-72" d="M 444 0 
L 444 2594 
Q 444 2700 442 2811 
Q 441 2922 437 3025 
Q 434 3128 431 3218 
Q 428 3309 425 3381 
L 956 3381 
Q 959 3309 964 3217 
Q 969 3125 973 3028 
Q 978 2931 979 2842 
Q 981 2753 981 2691 
L 994 2691 
Q 1053 2884 1120 3026 
Q 1188 3169 1278 3261 
Q 1369 3353 1494 3398 
Q 1619 3444 1797 3444 
Q 1866 3444 1928 3433 
Q 1991 3422 2025 3413 
L 2025 2897 
Q 1969 2913 1894 2920 
Q 1819 2928 1725 2928 
Q 1531 2928 1395 2840 
Q 1259 2753 1173 2598 
Q 1088 2444 1047 2230 
Q 1006 2016 1006 1763 
L 1006 0 
L 444 0 
z
" transform="scale(0.015625)"/>
       <path id="LiberationSans-77" d="M 3669 0 
L 3016 0 
L 2475 2181 
Q 2450 2266 2423 2391 
Q 2397 2516 2372 2634 
Q 2341 2772 2313 2919 
Q 2284 2778 2253 2641 
Q 2228 2522 2198 2394 
Q 2169 2266 2144 2169 
L 1588 0 
L 938 0 
L -9 3381 
L 547 3381 
L 1119 1084 
Q 1141 1013 1162 908 
Q 1184 803 1206 703 
Q 1228 588 1253 466 
Q 1278 584 1306 697 
Q 1331 794 1356 894 
Q 1381 994 1400 1059 
L 2013 3381 
L 2616 3381 
L 3206 1059 
Q 3228 978 3253 875 
Q 3278 772 3300 681 
Q 3325 575 3350 466 
Q 3375 584 3400 697 
Q 3422 794 3445 898 
Q 3469 1003 3491 1084 
L 4088 3381 
L 4638 3381 
L 3669 0 
z
" transform="scale(0.015625)"/>
      </defs>
      <use xlink:href="#LiberationSans-4d"/>
      <use xlink:href="#LiberationSans-65" x="83.300781"/>
      <use xlink:href="#LiberationSans-74" x="138.916016"/>
      <use xlink:href="#LiberationSans-68" x="166.699219"/>
      <use xlink:href="#LiberationSans-6f" x="222.314453"/>
      <use xlink:href="#LiberationSans-64" x="277.929688"/>
      <use xlink:href="#LiberationSans-20" x="333.544922"/>
      <use xlink:href="#LiberationSans-28" x="361.328125"/>
      <use xlink:href="#LiberationSans-48" x="394.628906"/>
      <use xlink:href="#LiberationSans-61" x="466.845703"/>
      <use xlink:href="#LiberationSans-72" x="522.460938"/>
      <use xlink:href="#LiberationSans-64" x="555.761719"/>
      <use xlink:href="#LiberationSans-77" x="611.376953"/>
      <use xlink:href="#LiberationSans-61" x="683.59375"/>
      <use xlink:href="#LiberationSans-72" x="739.208984"/>
      <use xlink:href="#LiberationSans-65" x="772.509766"/>
      <use xlink:href="#LiberationSans-29" x="828.125"/>
     </g>
    </g>
   </g>
   <g id="matplotlib.axis_2">
    <g id="ytick_1">
     <g id="line2d_4">
      <path d="M 51.908438 178.852294 
L 410.347805 178.852294 
" clip-path="url(#pc9ae6724c9)" style="fill: none; stroke: #cccccc; stroke-width: 0.8; stroke-linecap: round"/>
     </g>
     <g id="line2d_5"/>
     <g id="text_5">
      <!-- $\mathdefault{10^{8}}$ -->
      <g style="fill: #262626" transform="translate(28.388438 183.562763) scale(0.13 -0.13)">
       <defs>
        <path id="LiberationSans-38" d="M 3281 1228 
Q 3281 947 3192 711 
Q 3103 475 2920 303 
Q 2738 131 2453 34 
Q 2169 -63 1781 -63 
Q 1394 -63 1111 34 
Q 828 131 642 301 
Q 456 472 367 708 
Q 278 944 278 1222 
Q 278 1463 351 1650 
Q 425 1838 548 1973 
Q 672 2109 830 2192 
Q 988 2275 1156 2303 
L 1156 2316 
Q 972 2359 826 2456 
Q 681 2553 582 2689 
Q 484 2825 432 2990 
Q 381 3156 381 3341 
Q 381 3572 470 3776 
Q 559 3981 734 4136 
Q 909 4291 1168 4380 
Q 1428 4469 1769 4469 
Q 2128 4469 2392 4378 
Q 2656 4288 2829 4133 
Q 3003 3978 3087 3772 
Q 3172 3566 3172 3334 
Q 3172 3153 3120 2987 
Q 3069 2822 2970 2686 
Q 2872 2550 2726 2454 
Q 2581 2359 2391 2322 
L 2391 2309 
Q 2581 2278 2743 2195 
Q 2906 2113 3025 1977 
Q 3144 1841 3212 1653 
Q 3281 1466 3281 1228 
z
M 2588 3303 
Q 2588 3469 2545 3606 
Q 2503 3744 2406 3842 
Q 2309 3941 2153 3995 
Q 1997 4050 1769 4050 
Q 1547 4050 1394 3995 
Q 1241 3941 1142 3842 
Q 1044 3744 1000 3606 
Q 956 3469 956 3303 
Q 956 3172 990 3034 
Q 1025 2897 1115 2784 
Q 1206 2672 1365 2600 
Q 1525 2528 1775 2528 
Q 2041 2528 2202 2600 
Q 2363 2672 2448 2784 
Q 2534 2897 2561 3034 
Q 2588 3172 2588 3303 
z
M 2697 1281 
Q 2697 1441 2653 1589 
Q 2609 1738 2503 1852 
Q 2397 1966 2217 2036 
Q 2038 2106 1769 2106 
Q 1522 2106 1348 2036 
Q 1175 1966 1067 1850 
Q 959 1734 909 1582 
Q 859 1431 859 1269 
Q 859 1066 909 898 
Q 959 731 1068 611 
Q 1178 491 1356 425 
Q 1534 359 1788 359 
Q 2044 359 2219 425 
Q 2394 491 2500 611 
Q 2606 731 2651 901 
Q 2697 1072 2697 1281 
z
" transform="scale(0.015625)"/>
       </defs>
       <use xlink:href="#LiberationSans-31" transform="translate(0 0.140625)"/>
       <use xlink:href="#LiberationSans-30" transform="translate(55.615234 0.140625)"/>
       <use xlink:href="#LiberationSans-38" transform="translate(112.154961 37.120312) scale(0.7)"/>
      </g>
     </g>
    </g>
    <g id="ytick_2">
     <g id="line2d_6">
      <path d="M 51.908438 114.974335 
L 410.347805 114.974335 
" clip-path="url(#pc9ae6724c9)" style="fill: none; stroke: #cccccc; stroke-width: 0.8; stroke-linecap: round"/>
     </g>
     <g id="line2d_7"/>
     <g id="text_6">
      <!-- $\mathdefault{10^{9}}$ -->
      <g style="fill: #262626" transform="translate(28.388438 119.684803) scale(0.13 -0.13)">
       <use xlink:href="#LiberationSans-31" transform="translate(0 0.140625)"/>
       <use xlink:href="#LiberationSans-30" transform="translate(55.615234 0.140625)"/>
       <use xlink:href="#LiberationSans-39" transform="translate(112.154961 37.120312) scale(0.7)"/>
      </g>
     </g>
    </g>
    <g id="ytick_3">
     <g id="line2d_8">
      <path d="M 51.908438 51.096375 
L 410.347805 51.096375 
" clip-path="url(#pc9ae6724c9)" style="fill: none; stroke: #cccccc; stroke-width: 0.8; stroke-linecap: round"/>
     </g>
     <g id="line2d_9"/>
     <g id="text_7">
      <!-- $\mathdefault{10^{10}}$ -->
      <g style="fill: #262626" transform="translate(23.318438 55.806844) scale(0.13 -0.13)">
       <use xlink:href="#LiberationSans-31" transform="translate(0 0.140625)"/>
       <use xlink:href="#LiberationSans-30" transform="translate(55.615234 0.140625)"/>
       <use xlink:href="#LiberationSans-31" transform="translate(112.154961 37.120312) scale(0.7)"/>
       <use xlink:href="#LiberationSans-30" transform="translate(151.085625 37.120312) scale(0.7)"/>
      </g>
     </g>
    </g>
    <g id="ytick_4">
     <g id="line2d_10"/>
    </g>
    <g id="ytick_5">
     <g id="line2d_11"/>
    </g>
    <g id="ytick_6">
     <g id="line2d_12"/>
    </g>
    <g id="ytick_7">
     <g id="line2d_13"/>
    </g>
    <g id="ytick_8">
     <g id="line2d_14"/>
    </g>
    <g id="ytick_9">
     <g id="line2d_15"/>
    </g>
    <g id="ytick_10">
     <g id="line2d_16"/>
    </g>
    <g id="ytick_11">
     <g id="line2d_17"/>
    </g>
    <g id="ytick_12">
     <g id="line2d_18"/>
    </g>
    <g id="ytick_13">
     <g id="line2d_19"/>
    </g>
    <g id="ytick_14">
     <g id="line2d_20"/>
    </g>
    <g id="ytick_15">
     <g id="line2d_21"/>
    </g>
    <g id="ytick_16">
     <g id="line2d_22"/>
    </g>
    <g id="ytick_17">
     <g id="line2d_23"/>
    </g>
    <g id="ytick_18">
     <g id="line2d_24"/>
    </g>
    <g id="ytick_19">
     <g id="line2d_25"/>
    </g>
    <g id="ytick_20">
     <g id="line2d_26"/>
    </g>
    <g id="ytick_21">
     <g id="line2d_27"/>
    </g>
    <g id="ytick_22">
     <g id="line2d_28"/>
    </g>
    <g id="ytick_23">
     <g id="line2d_29"/>
    </g>
    <g id="ytick_24">
     <g id="line2d_30"/>
    </g>
    <g id="ytick_25">
     <g id="line2d_31"/>
    </g>
    <g id="ytick_26">
     <g id="line2d_32"/>
    </g>
    <g id="ytick_27">
     <g id="line2d_33"/>
    </g>
    <g id="ytick_28">
     <g id="line2d_34"/>
    </g>
    <g id="text_8">
     <!-- # Comparisons / Hour -->
     <g style="fill: #262626" transform="translate(16.620938 189.126484) rotate(-90) scale(0.13 -0.13)">
      <defs>
       <path id="LiberationSans-23" d="M 2800 2766 
L 2556 1613 
L 3369 1613 
L 3369 1275 
L 2484 1275 
L 2209 0 
L 1866 0 
L 2134 1275 
L 1000 1275 
L 738 0 
L 394 0 
L 656 1275 
L 28 1275 
L 28 1613 
L 731 1613 
L 975 2766 
L 188 2766 
L 188 3103 
L 1044 3103 
L 1322 4378 
L 1666 4378 
L 1391 3103 
L 2525 3103 
L 2800 4378 
L 3144 4378 
L 2869 3103 
L 3528 3103 
L 3528 2766 
L 2800 2766 
z
M 1328 2766 
L 1078 1613 
L 2209 1613 
L 2453 2766 
L 1328 2766 
z
" transform="scale(0.015625)"/>
       <path id="LiberationSans-70" d="M 3291 1706 
Q 3291 1322 3228 997 
Q 3166 672 3020 437 
Q 2875 203 2636 70 
Q 2397 -63 2047 -63 
Q 1684 -63 1412 75 
Q 1141 213 997 525 
L 981 525 
Q 984 519 986 469 
Q 988 419 989 344 
Q 991 269 992 176 
Q 994 84 994 -6 
L 994 -1328 
L 431 -1328 
L 431 2691 
Q 431 2813 429 2925 
Q 428 3038 425 3130 
Q 422 3222 419 3287 
Q 416 3353 413 3381 
L 956 3381 
Q 959 3372 964 3315 
Q 969 3259 973 3179 
Q 978 3100 983 3009 
Q 988 2919 988 2838 
L 1000 2838 
Q 1078 3000 1178 3114 
Q 1278 3228 1406 3301 
Q 1534 3375 1692 3408 
Q 1850 3441 2047 3441 
Q 2397 3441 2636 3316 
Q 2875 3191 3020 2964 
Q 3166 2738 3228 2417 
Q 3291 2097 3291 1706 
z
M 2700 1694 
Q 2700 2006 2662 2250 
Q 2625 2494 2533 2662 
Q 2441 2831 2287 2918 
Q 2134 3006 1903 3006 
Q 1716 3006 1550 2953 
Q 1384 2900 1261 2750 
Q 1138 2600 1066 2336 
Q 994 2072 994 1650 
Q 994 1291 1053 1042 
Q 1113 794 1227 641 
Q 1341 488 1509 420 
Q 1678 353 1897 353 
Q 2131 353 2286 443 
Q 2441 534 2533 706 
Q 2625 878 2662 1126 
Q 2700 1375 2700 1694 
z
" transform="scale(0.015625)"/>
       <path id="LiberationSans-73" d="M 2969 934 
Q 2969 697 2876 511 
Q 2784 325 2609 198 
Q 2434 72 2179 4 
Q 1925 -63 1597 -63 
Q 1303 -63 1067 -17 
Q 831 28 653 128 
Q 475 228 354 392 
Q 234 556 178 794 
L 675 891 
Q 747 619 972 492 
Q 1197 366 1597 366 
Q 1778 366 1929 391 
Q 2081 416 2190 477 
Q 2300 538 2361 639 
Q 2422 741 2422 891 
Q 2422 1044 2350 1142 
Q 2278 1241 2150 1306 
Q 2022 1372 1839 1420 
Q 1656 1469 1438 1528 
Q 1234 1581 1034 1647 
Q 834 1713 673 1820 
Q 513 1928 413 2087 
Q 313 2247 313 2488 
Q 313 2950 642 3192 
Q 972 3434 1603 3434 
Q 2163 3434 2492 3237 
Q 2822 3041 2909 2606 
L 2403 2544 
Q 2375 2675 2300 2764 
Q 2225 2853 2119 2908 
Q 2013 2963 1880 2986 
Q 1747 3009 1603 3009 
Q 1222 3009 1040 2893 
Q 859 2778 859 2544 
Q 859 2406 926 2317 
Q 994 2228 1114 2167 
Q 1234 2106 1403 2061 
Q 1572 2016 1775 1966 
Q 1909 1931 2050 1892 
Q 2191 1853 2323 1798 
Q 2456 1744 2573 1670 
Q 2691 1597 2778 1494 
Q 2866 1391 2917 1253 
Q 2969 1116 2969 934 
z
" transform="scale(0.015625)"/>
       <path id="LiberationSans-6e" d="M 2578 0 
L 2578 2144 
Q 2578 2391 2542 2556 
Q 2506 2722 2425 2823 
Q 2344 2925 2211 2967 
Q 2078 3009 1881 3009 
Q 1681 3009 1520 2939 
Q 1359 2869 1245 2736 
Q 1131 2603 1068 2408 
Q 1006 2213 1006 1959 
L 1006 0 
L 444 0 
L 444 2659 
Q 444 2766 442 2883 
Q 441 3000 437 3104 
Q 434 3209 431 3284 
Q 428 3359 425 3381 
L 956 3381 
Q 959 3366 962 3297 
Q 966 3228 970 3139 
Q 975 3050 978 2958 
Q 981 2866 981 2803 
L 991 2803 
Q 1072 2950 1169 3069 
Q 1266 3188 1394 3270 
Q 1522 3353 1687 3398 
Q 1853 3444 2072 3444 
Q 2353 3444 2556 3375 
Q 2759 3306 2890 3162 
Q 3022 3019 3083 2792 
Q 3144 2566 3144 2253 
L 3144 0 
L 2578 0 
z
" transform="scale(0.015625)"/>
       <path id="LiberationSans-2f" d="M 0 -63 
L 1284 4638 
L 1778 4638 
L 506 -63 
L 0 -63 
z
" transform="scale(0.015625)"/>
       <path id="LiberationSans-75" d="M 981 3381 
L 981 1238 
Q 981 991 1017 825 
Q 1053 659 1134 557 
Q 1216 456 1348 414 
Q 1481 372 1678 372 
Q 1878 372 2039 442 
Q 2200 513 2314 645 
Q 2428 778 2490 973 
Q 2553 1169 2553 1422 
L 2553 3381 
L 3116 3381 
L 3116 722 
Q 3116 616 3117 498 
Q 3119 381 3122 276 
Q 3125 172 3128 97 
Q 3131 22 3134 0 
L 2603 0 
Q 2600 16 2597 84 
Q 2594 153 2589 242 
Q 2584 331 2581 423 
Q 2578 516 2578 578 
L 2569 578 
Q 2488 431 2391 312 
Q 2294 194 2166 111 
Q 2038 28 1872 -17 
Q 1706 -63 1488 -63 
Q 1206 -63 1003 6 
Q 800 75 669 219 
Q 538 363 477 588 
Q 416 813 416 1128 
L 416 3381 
L 981 3381 
z
" transform="scale(0.015625)"/>
      </defs>
      <use xlink:href="#LiberationSans-23"/>
      <use xlink:href="#LiberationSans-20" x="55.615234"/>
      <use xlink:href="#LiberationSans-43" x="83.398438"/>
      <use xlink:href="#LiberationSans-6f" x="155.615234"/>
      <use xlink:href="#LiberationSans-6d" x="211.230469"/>
      <use xlink:href="#LiberationSans-70" x="294.53125"/>
      <use xlink:href="#LiberationSans-61" x="350.146484"/>
      <use xlink:href="#LiberationSans-72" x="405.761719"/>
      <use xlink:href="#LiberationSans-69" x="439.0625"/>
      <use xlink:href="#LiberationSans-73" x="461.279297"/>
      <use xlink:href="#LiberationSans-6f" x="511.279297"/>
      <use xlink:href="#LiberationSans-6e" x="566.894531"/>
      <use xlink:href="#LiberationSans-73" x="622.509766"/>
      <use xlink:href="#LiberationSans-20" x="672.509766"/>
      <use xlink:href="#LiberationSans-2f" x="700.292969"/>
      <use xlink:href="#LiberationSans-20" x="728.076172"/>
      <use xlink:href="#LiberationSans-48" x="755.859375"/>
      <use xlink:href="#LiberationSans-6f" x="828.076172"/>
      <use xlink:href="#LiberationSans-75" x="883.691406"/>
      <use xlink:href="#LiberationSans-72" x="939.306641"/>
     </g>
    </g>
   </g>
   <g id="patch_3">
    <path d="M 63.856416 64567.835289 
L 159.440248 64567.835289 
L 159.440248 219.810938 
L 63.856416 219.810938 
z
" clip-path="url(#pc9ae6724c9)" style="fill: #808080"/>
   </g>
   <g id="patch_4">
    <path d="M 183.336205 64567.835289 
L 278.920037 64567.835289 
L 278.920037 38.175984 
L 183.336205 38.175984 
z
" clip-path="url(#pc9ae6724c9)" style="fill: #70a217"/>
   </g>
   <g id="patch_5">
    <path d="M 302.815995 64567.835289 
L 398.399826 64567.835289 
L 398.399826 32.010937 
L 302.815995 32.010937 
z
" clip-path="url(#pc9ae6724c9)" style="fill: #70a217"/>
   </g>
   <g id="line2d_35">
    <path clip-path="url(#pc9ae6724c9)" style="fill: none; stroke: #424242; stroke-width: 2.25; stroke-linecap: round"/>
   </g>
   <g id="line2d_36">
    <path clip-path="url(#pc9ae6724c9)" style="fill: none; stroke: #424242; stroke-width: 2.25; stroke-linecap: round"/>
   </g>
   <g id="line2d_37">
    <path clip-path="url(#pc9ae6724c9)" style="fill: none; stroke: #424242; stroke-width: 2.25; stroke-linecap: round"/>
   </g>
   <g id="patch_6">
    <path d="M 51.908438 229.200938 
L 51.908438 22.620937 
" style="fill: none; stroke: #cccccc; stroke-linejoin: miter; stroke-linecap: square"/>
   </g>
   <g id="patch_7">
    <path d="M 410.347805 229.200938 
L 410.347805 22.620937 
" style="fill: none; stroke: #cccccc; stroke-linejoin: miter; stroke-linecap: square"/>
   </g>
   <g id="patch_8">
    <path d="M 51.908438 229.200938 
L 410.347805 229.200938 
" style="fill: none; stroke: #cccccc; stroke-linejoin: miter; stroke-linecap: square"/>
   </g>
   <g id="patch_9">
    <path d="M 51.908438 22.620937 
L 410.347805 22.620937 
" style="fill: none; stroke: #cccccc; stroke-linejoin: miter; stroke-linecap: square"/>
   </g>
   <g id="text_9">
    <!-- Modified Cosine Processing Speed -->
    <g style="fill: #262626" transform="translate(129.964762 16.620937) scale(0.13 -0.13)">
     <defs>
      <path id="LiberationSans-66" d="M 1128 2972 
L 1128 0 
L 566 0 
L 566 2972 
L 91 2972 
L 91 3381 
L 566 3381 
L 566 3763 
Q 566 3947 600 4105 
Q 634 4263 726 4380 
Q 819 4497 978 4564 
Q 1138 4631 1391 4631 
Q 1491 4631 1598 4622 
Q 1706 4613 1788 4594 
L 1788 4166 
Q 1734 4175 1664 4183 
Q 1594 4191 1538 4191 
Q 1413 4191 1333 4156 
Q 1253 4122 1208 4058 
Q 1163 3994 1145 3900 
Q 1128 3806 1128 3684 
L 1128 3381 
L 1788 3381 
L 1788 2972 
L 1128 2972 
z
" transform="scale(0.015625)"/>
      <path id="LiberationSans-67" d="M 1713 -1328 
Q 1422 -1328 1197 -1268 
Q 972 -1209 812 -1098 
Q 653 -988 553 -834 
Q 453 -681 409 -494 
L 975 -413 
Q 1031 -647 1223 -773 
Q 1416 -900 1728 -900 
Q 1919 -900 2075 -847 
Q 2231 -794 2340 -676 
Q 2450 -559 2509 -371 
Q 2569 -184 2569 84 
L 2569 628 
L 2563 628 
Q 2500 500 2408 383 
Q 2316 266 2183 175 
Q 2050 84 1875 29 
Q 1700 -25 1475 -25 
Q 1153 -25 923 83 
Q 694 191 548 406 
Q 403 622 336 942 
Q 269 1263 269 1684 
Q 269 2091 336 2416 
Q 403 2741 554 2967 
Q 706 3194 948 3314 
Q 1191 3434 1538 3434 
Q 1897 3434 2161 3270 
Q 2425 3106 2569 2803 
L 2575 2803 
Q 2575 2881 2579 2978 
Q 2584 3075 2589 3161 
Q 2594 3247 2600 3309 
Q 2606 3372 2613 3381 
L 3147 3381 
Q 3144 3353 3141 3286 
Q 3138 3219 3134 3125 
Q 3131 3031 3129 2917 
Q 3128 2803 3128 2681 
L 3128 97 
Q 3128 -613 2779 -970 
Q 2431 -1328 1713 -1328 
z
M 2569 1691 
Q 2569 2044 2492 2295 
Q 2416 2547 2291 2706 
Q 2166 2866 2005 2941 
Q 1844 3016 1675 3016 
Q 1459 3016 1304 2941 
Q 1150 2866 1048 2705 
Q 947 2544 898 2292 
Q 850 2041 850 1691 
Q 850 1325 898 1076 
Q 947 828 1047 675 
Q 1147 522 1300 456 
Q 1453 391 1666 391 
Q 1834 391 1995 462 
Q 2156 534 2284 690 
Q 2413 847 2491 1094 
Q 2569 1341 2569 1691 
z
" transform="scale(0.015625)"/>
     </defs>
     <use xlink:href="#LiberationSans-4d"/>
     <use xlink:href="#LiberationSans-6f" x="83.300781"/>
     <use xlink:href="#LiberationSans-64" x="138.916016"/>
     <use xlink:href="#LiberationSans-69" x="194.53125"/>
     <use xlink:href="#LiberationSans-66" x="216.748047"/>
     <use xlink:href="#LiberationSans-69" x="244.53125"/>
     <use xlink:href="#LiberationSans-65" x="266.748047"/>
     <use xlink:href="#LiberationSans-64" x="322.363281"/>
     <use xlink:href="#LiberationSans-20" x="377.978516"/>
     <use xlink:href="#LiberationSans-43" x="405.761719"/>
     <use xlink:href="#LiberationSans-6f" x="477.978516"/>
     <use xlink:href="#LiberationSans-73" x="533.59375"/>
     <use xlink:href="#LiberationSans-69" x="583.59375"/>
     <use xlink:href="#LiberationSans-6e" x="605.810547"/>
     <use xlink:href="#LiberationSans-65" x="661.425781"/>
     <use xlink:href="#LiberationSans-20" x="717.041016"/>
     <use xlink:href="#LiberationSans-50" x="744.824219"/>
     <use xlink:href="#LiberationSans-72" x="811.523438"/>
     <use xlink:href="#LiberationSans-6f" x="844.824219"/>
     <use xlink:href="#LiberationSans-63" x="900.439453"/>
     <use xlink:href="#LiberationSans-65" x="950.439453"/>
     <use xlink:href="#LiberationSans-73" x="1006.054688"/>
     <use xlink:href="#LiberationSans-73" x="1056.054688"/>
     <use xlink:href="#LiberationSans-69" x="1106.054688"/>
     <use xlink:href="#LiberationSans-6e" x="1128.271484"/>
     <use xlink:href="#LiberationSans-67" x="1183.886719"/>
     <use xlink:href="#LiberationSans-20" x="1239.501953"/>
     <use xlink:href="#LiberationSans-53" x="1267.285156"/>
     <use xlink:href="#LiberationSans-70" x="1333.984375"/>
     <use xlink:href="#LiberationSans-65" x="1389.599609"/>
     <use xlink:href="#LiberationSans-65" x="1445.214844"/>
     <use xlink:href="#LiberationSans-64" x="1500.830078"/>
    </g>
   </g>
  </g>
 </g>
 <defs>
  <clipPath id="pc9ae6724c9">
   <rect x="51.908438" y="22.620937" width="358.439367" height="206.58"/>
  </clipPath>
 </defs>
</svg>
