<?xml version="1.0" encoding="utf-8" standalone="no"?>
<!DOCTYPE svg PUBLIC "-//W3C//DTD SVG 1.1//EN"
  "http://www.w3.org/Graphics/SVG/1.1/DTD/svg11.dtd">
<svg xmlns:xlink="http://www.w3.org/1999/xlink" width="1008pt" height="288pt" viewBox="0 0 1008 288" xmlns="http://www.w3.org/2000/svg" version="1.1">
 <metadata>
  <rdf:RDF xmlns:dc="http://purl.org/dc/elements/1.1/" xmlns:cc="http://creativecommons.org/ns#" xmlns:rdf="http://www.w3.org/1999/02/22-rdf-syntax-ns#">
   <cc:Work>
    <dc:type rdf:resource="http://purl.org/dc/dcmitype/StillImage"/>
    <dc:date>2024-06-04T10:08:34.900139</dc:date>
    <dc:format>image/svg+xml</dc:format>
    <dc:creator>
     <cc:Agent>
      <dc:title>Matplotlib v3.8.3, https://matplotlib.org/</dc:title>
     </cc:Agent>
    </dc:creator>
   </cc:Work>
  </rdf:RDF>
 </metadata>
 <defs>
  <style type="text/css">*{stroke-linejoin: round; stroke-linecap: butt}</style>
 </defs>
 <g id="figure_1">
  <g id="patch_1">
   <path d="M 0 288 
L 1008 288 
L 1008 0 
L 0 0 
z
" style="fill: #ffffff"/>
  </g>
  <g id="axes_1">
   <g id="patch_2">
    <path d="M 126 256.32 
L 481.090909 256.32 
L 481.090909 34.56 
L 126 34.56 
z
" style="fill: #ffffff"/>
   </g>
   <g id="matplotlib.axis_1">
    <g id="xtick_1">
     <g id="line2d_1"/>
     <g id="text_1">
      <!-- MatchMS -->
      <g style="fill: #262626" transform="translate(142.937067 269.240938) scale(0.13 -0.13)">
       <defs>
        <path id="LiberationSans-4d" d="M 4269 0 
L 4269 2938 
Q 4269 3097 4272 3262 
Q 4275 3428 4281 3566 
Q 4288 3725 4297 3875 
Q 4253 3716 4206 3559 
Q 4166 3425 4117 3273 
Q 4069 3122 4022 3000 
L 2884 0 
L 2466 0 
L 1313 3000 
Q 1294 3047 1273 3109 
Q 1253 3172 1229 3242 
Q 1206 3313 1182 3386 
Q 1159 3459 1138 3531 
Q 1084 3697 1034 3875 
Q 1038 3700 1044 3528 
Q 1050 3381 1053 3220 
Q 1056 3059 1056 2938 
L 1056 0 
L 525 0 
L 525 4403 
L 1309 4403 
L 2481 1350 
Q 2503 1288 2534 1189 
Q 2566 1091 2594 987 
Q 2622 884 2645 792 
Q 2669 700 2678 650 
Q 2688 700 2713 794 
Q 2738 888 2770 991 
Q 2803 1094 2834 1191 
Q 2866 1288 2891 1350 
L 4041 4403 
L 4806 4403 
L 4806 0 
L 4269 0 
z
" transform="scale(0.015625)"/>
        <path id="LiberationSans-61" d="M 1294 -63 
Q 784 -63 528 206 
Q 272 475 272 944 
Q 272 1278 398 1492 
Q 525 1706 729 1828 
Q 934 1950 1196 1997 
Q 1459 2044 1731 2050 
L 2491 2063 
L 2491 2247 
Q 2491 2456 2447 2603 
Q 2403 2750 2312 2840 
Q 2222 2931 2086 2973 
Q 1950 3016 1766 3016 
Q 1603 3016 1472 2992 
Q 1341 2969 1244 2908 
Q 1147 2847 1087 2742 
Q 1028 2638 1009 2478 
L 422 2531 
Q 453 2731 540 2898 
Q 628 3066 789 3187 
Q 950 3309 1192 3376 
Q 1434 3444 1778 3444 
Q 2416 3444 2737 3151 
Q 3059 2859 3059 2306 
L 3059 850 
Q 3059 600 3125 473 
Q 3191 347 3375 347 
Q 3422 347 3469 353 
Q 3516 359 3559 369 
L 3559 19 
Q 3453 -6 3348 -18 
Q 3244 -31 3125 -31 
Q 2966 -31 2852 11 
Q 2738 53 2666 139 
Q 2594 225 2556 351 
Q 2519 478 2509 647 
L 2491 647 
Q 2400 484 2292 353 
Q 2184 222 2040 130 
Q 1897 38 1714 -12 
Q 1531 -63 1294 -63 
z
M 1422 359 
Q 1691 359 1892 457 
Q 2094 556 2226 709 
Q 2359 863 2425 1044 
Q 2491 1225 2491 1391 
L 2491 1669 
L 1875 1656 
Q 1669 1653 1483 1626 
Q 1297 1600 1156 1522 
Q 1016 1444 933 1303 
Q 850 1163 850 934 
Q 850 659 998 509 
Q 1147 359 1422 359 
z
" transform="scale(0.015625)"/>
        <path id="LiberationSans-74" d="M 1731 25 
Q 1603 -9 1470 -29 
Q 1338 -50 1163 -50 
Q 488 -50 488 716 
L 488 2972 
L 97 2972 
L 97 3381 
L 509 3381 
L 675 4138 
L 1050 4138 
L 1050 3381 
L 1675 3381 
L 1675 2972 
L 1050 2972 
L 1050 838 
Q 1050 594 1129 495 
Q 1209 397 1406 397 
Q 1488 397 1564 409 
Q 1641 422 1731 441 
L 1731 25 
z
" transform="scale(0.015625)"/>
        <path id="LiberationSans-63" d="M 859 1706 
Q 859 1416 901 1172 
Q 944 928 1044 751 
Q 1144 575 1308 478 
Q 1472 381 1713 381 
Q 2013 381 2214 543 
Q 2416 706 2463 1044 
L 3031 1006 
Q 3003 797 2909 603 
Q 2816 409 2655 262 
Q 2494 116 2262 26 
Q 2031 -63 1728 -63 
Q 1331 -63 1053 71 
Q 775 206 601 442 
Q 428 678 350 998 
Q 272 1319 272 1694 
Q 272 2034 328 2295 
Q 384 2556 486 2751 
Q 588 2947 725 3080 
Q 863 3213 1023 3292 
Q 1184 3372 1362 3408 
Q 1541 3444 1722 3444 
Q 2006 3444 2228 3366 
Q 2450 3288 2611 3152 
Q 2772 3016 2872 2831 
Q 2972 2647 3013 2434 
L 2434 2391 
Q 2391 2672 2212 2837 
Q 2034 3003 1706 3003 
Q 1466 3003 1305 2923 
Q 1144 2844 1044 2683 
Q 944 2522 901 2278 
Q 859 2034 859 1706 
z
" transform="scale(0.015625)"/>
        <path id="LiberationSans-68" d="M 991 2803 
Q 1084 2975 1193 3095 
Q 1303 3216 1434 3294 
Q 1566 3372 1722 3408 
Q 1878 3444 2072 3444 
Q 2397 3444 2605 3356 
Q 2813 3269 2933 3111 
Q 3053 2953 3098 2734 
Q 3144 2516 3144 2253 
L 3144 0 
L 2578 0 
L 2578 2144 
Q 2578 2359 2551 2521 
Q 2525 2684 2450 2792 
Q 2375 2900 2237 2954 
Q 2100 3009 1881 3009 
Q 1681 3009 1520 2937 
Q 1359 2866 1245 2734 
Q 1131 2603 1068 2415 
Q 1006 2228 1006 1994 
L 1006 0 
L 444 0 
L 444 4638 
L 1006 4638 
L 1006 3431 
Q 1006 3328 1003 3225 
Q 1000 3122 995 3034 
Q 991 2947 987 2886 
Q 984 2825 981 2803 
L 991 2803 
z
" transform="scale(0.015625)"/>
        <path id="LiberationSans-53" d="M 3975 1216 
Q 3975 938 3867 703 
Q 3759 469 3534 298 
Q 3309 128 2967 32 
Q 2625 -63 2156 -63 
Q 1334 -63 875 225 
Q 416 513 291 1056 
L 869 1172 
Q 913 1000 1003 859 
Q 1094 719 1248 617 
Q 1403 516 1631 459 
Q 1859 403 2178 403 
Q 2444 403 2666 448 
Q 2888 494 3047 587 
Q 3206 681 3295 829 
Q 3384 978 3384 1184 
Q 3384 1400 3286 1534 
Q 3188 1669 3009 1756 
Q 2831 1844 2584 1903 
Q 2338 1963 2038 2031 
Q 1853 2072 1667 2120 
Q 1481 2169 1311 2236 
Q 1141 2303 991 2393 
Q 841 2484 731 2611 
Q 622 2738 559 2905 
Q 497 3072 497 3291 
Q 497 3603 623 3826 
Q 750 4050 975 4194 
Q 1200 4338 1506 4403 
Q 1813 4469 2169 4469 
Q 2578 4469 2868 4405 
Q 3159 4341 3359 4212 
Q 3559 4084 3679 3895 
Q 3800 3706 3872 3456 
L 3284 3353 
Q 3241 3513 3158 3638 
Q 3075 3763 2940 3847 
Q 2806 3931 2614 3975 
Q 2422 4019 2163 4019 
Q 1856 4019 1648 3964 
Q 1441 3909 1314 3815 
Q 1188 3722 1133 3595 
Q 1078 3469 1078 3322 
Q 1078 3125 1176 2998 
Q 1275 2872 1444 2787 
Q 1613 2703 1834 2647 
Q 2056 2591 2306 2534 
Q 2509 2488 2711 2439 
Q 2913 2391 3097 2323 
Q 3281 2256 3442 2165 
Q 3603 2075 3722 1944 
Q 3841 1813 3908 1634 
Q 3975 1456 3975 1216 
z
" transform="scale(0.015625)"/>
       </defs>
       <use xlink:href="#LiberationSans-4d"/>
       <use xlink:href="#LiberationSans-61" x="83.300781"/>
       <use xlink:href="#LiberationSans-74" x="138.916016"/>
       <use xlink:href="#LiberationSans-63" x="166.699219"/>
       <use xlink:href="#LiberationSans-68" x="216.699219"/>
       <use xlink:href="#LiberationSans-4d" x="272.314453"/>
       <use xlink:href="#LiberationSans-53" x="355.615234"/>
      </g>
     </g>
    </g>
    <g id="xtick_2">
     <g id="line2d_2"/>
     <g id="text_2">
      <!-- T4 -->
      <g style="fill: #262626" transform="translate(251.574403 269.240938) scale(0.13 -0.13)">
       <defs>
        <path id="LiberationSans-54" d="M 2250 3916 
L 2250 0 
L 1656 0 
L 1656 3916 
L 144 3916 
L 144 4403 
L 3763 4403 
L 3763 3916 
L 2250 3916 
z
" transform="scale(0.015625)"/>
        <path id="LiberationSans-34" d="M 2753 997 
L 2753 0 
L 2222 0 
L 2222 997 
L 147 997 
L 147 1434 
L 2163 4403 
L 2753 4403 
L 2753 1441 
L 3372 1441 
L 3372 997 
L 2753 997 
z
M 2222 3769 
Q 2216 3753 2191 3708 
Q 2166 3663 2134 3606 
Q 2103 3550 2070 3492 
Q 2038 3434 2013 3397 
L 884 1734 
Q 869 1709 839 1668 
Q 809 1628 778 1586 
Q 747 1544 715 1503 
Q 684 1463 666 1441 
L 2222 1441 
L 2222 3769 
z
" transform="scale(0.015625)"/>
       </defs>
       <use xlink:href="#LiberationSans-54"/>
       <use xlink:href="#LiberationSans-34" x="61.083984"/>
      </g>
     </g>
    </g>
    <g id="xtick_3">
     <g id="line2d_3"/>
     <g id="text_3">
      <!-- RTX4090 -->
      <g style="fill: #262626" transform="translate(320.587131 269.240938) scale(0.13 -0.13)">
       <defs>
        <path id="LiberationSans-52" d="M 3638 0 
L 2494 1828 
L 1122 1828 
L 1122 0 
L 525 0 
L 525 4403 
L 2597 4403 
Q 2972 4403 3261 4317 
Q 3550 4231 3747 4068 
Q 3944 3906 4047 3672 
Q 4150 3438 4150 3144 
Q 4150 2934 4089 2731 
Q 4028 2528 3897 2359 
Q 3766 2191 3562 2069 
Q 3359 1947 3075 1897 
L 4325 0 
L 3638 0 
z
M 3550 3138 
Q 3550 3338 3481 3484 
Q 3413 3631 3281 3729 
Q 3150 3828 2962 3876 
Q 2775 3925 2538 3925 
L 1122 3925 
L 1122 2300 
L 2563 2300 
Q 2819 2300 3006 2364 
Q 3194 2428 3314 2540 
Q 3434 2653 3492 2806 
Q 3550 2959 3550 3138 
z
" transform="scale(0.015625)"/>
        <path id="LiberationSans-58" d="M 3475 0 
L 2153 1925 
L 803 0 
L 144 0 
L 1819 2288 
L 272 4403 
L 931 4403 
L 2156 2675 
L 3347 4403 
L 4006 4403 
L 2500 2309 
L 4134 0 
L 3475 0 
z
" transform="scale(0.015625)"/>
        <path id="LiberationSans-30" d="M 3309 2203 
Q 3309 1569 3189 1136 
Q 3069 703 2861 436 
Q 2653 169 2372 53 
Q 2091 -63 1772 -63 
Q 1450 -63 1172 53 
Q 894 169 689 434 
Q 484 700 367 1133 
Q 250 1566 250 2203 
Q 250 2869 367 3305 
Q 484 3741 690 4000 
Q 897 4259 1178 4364 
Q 1459 4469 1791 4469 
Q 2106 4469 2382 4364 
Q 2659 4259 2865 4000 
Q 3072 3741 3190 3305 
Q 3309 2869 3309 2203 
z
M 2738 2203 
Q 2738 2728 2675 3076 
Q 2613 3425 2491 3633 
Q 2369 3841 2192 3927 
Q 2016 4013 1791 4013 
Q 1553 4013 1372 3925 
Q 1191 3838 1067 3630 
Q 944 3422 881 3073 
Q 819 2725 819 2203 
Q 819 1697 883 1350 
Q 947 1003 1070 792 
Q 1194 581 1372 489 
Q 1550 397 1778 397 
Q 2000 397 2178 489 
Q 2356 581 2479 792 
Q 2603 1003 2670 1350 
Q 2738 1697 2738 2203 
z
" transform="scale(0.015625)"/>
        <path id="LiberationSans-39" d="M 3256 2291 
Q 3256 1703 3145 1261 
Q 3034 819 2828 525 
Q 2622 231 2326 84 
Q 2031 -63 1663 -63 
Q 1409 -63 1206 -11 
Q 1003 41 843 150 
Q 684 259 571 434 
Q 459 609 391 856 
L 928 941 
Q 1016 656 1202 523 
Q 1388 391 1672 391 
Q 1900 391 2089 498 
Q 2278 606 2411 822 
Q 2544 1038 2619 1363 
Q 2694 1688 2700 2125 
Q 2634 1978 2520 1862 
Q 2406 1747 2261 1667 
Q 2116 1588 1947 1545 
Q 1778 1503 1606 1503 
Q 1306 1503 1064 1611 
Q 822 1719 653 1912 
Q 484 2106 392 2379 
Q 300 2653 300 2988 
Q 300 3328 398 3603 
Q 497 3878 684 4070 
Q 872 4263 1145 4366 
Q 1419 4469 1766 4469 
Q 2500 4469 2878 3925 
Q 3256 3381 3256 2291 
z
M 2644 2834 
Q 2644 3078 2586 3293 
Q 2528 3509 2414 3668 
Q 2300 3828 2133 3920 
Q 1966 4013 1747 4013 
Q 1544 4013 1381 3941 
Q 1219 3869 1106 3736 
Q 994 3603 933 3412 
Q 872 3222 872 2988 
Q 872 2766 926 2575 
Q 981 2384 1090 2245 
Q 1200 2106 1362 2026 
Q 1525 1947 1741 1947 
Q 1897 1947 2058 2000 
Q 2219 2053 2348 2162 
Q 2478 2272 2561 2439 
Q 2644 2606 2644 2834 
z
" transform="scale(0.015625)"/>
       </defs>
       <use xlink:href="#LiberationSans-52"/>
       <use xlink:href="#LiberationSans-54" x="70.466797"/>
       <use xlink:href="#LiberationSans-58" x="131.550781"/>
       <use xlink:href="#LiberationSans-34" x="198.25"/>
       <use xlink:href="#LiberationSans-30" x="253.865234"/>
       <use xlink:href="#LiberationSans-39" x="309.480469"/>
       <use xlink:href="#LiberationSans-30" x="365.095703"/>
      </g>
     </g>
    </g>
    <g id="xtick_4">
     <g id="line2d_4"/>
     <g id="text_4">
      <!-- A100PCIE -->
      <g style="fill: #262626" transform="translate(406.353608 269.240938) scale(0.13 -0.13)">
       <defs>
        <path id="LiberationSans-41" d="M 3647 0 
L 3144 1288 
L 1138 1288 
L 631 0 
L 13 0 
L 1809 4403 
L 2488 4403 
L 4256 0 
L 3647 0 
z
M 2400 3206 
Q 2350 3331 2304 3459 
Q 2259 3588 2225 3692 
Q 2191 3797 2167 3867 
Q 2144 3938 2141 3953 
Q 2134 3938 2112 3866 
Q 2091 3794 2055 3687 
Q 2019 3581 1973 3453 
Q 1928 3325 1881 3200 
L 1319 1753 
L 2966 1753 
L 2400 3206 
z
" transform="scale(0.015625)"/>
        <path id="LiberationSans-31" d="M 488 0 
L 488 478 
L 1609 478 
L 1609 3866 
L 616 3156 
L 616 3688 
L 1656 4403 
L 2175 4403 
L 2175 478 
L 3247 478 
L 3247 0 
L 488 0 
z
" transform="scale(0.015625)"/>
        <path id="LiberationSans-50" d="M 3931 3078 
Q 3931 2791 3836 2542 
Q 3741 2294 3552 2111 
Q 3363 1928 3078 1822 
Q 2794 1716 2416 1716 
L 1122 1716 
L 1122 0 
L 525 0 
L 525 4403 
L 2378 4403 
Q 2769 4403 3059 4308 
Q 3350 4213 3544 4039 
Q 3738 3866 3834 3620 
Q 3931 3375 3931 3078 
z
M 3331 3072 
Q 3331 3491 3075 3708 
Q 2819 3925 2306 3925 
L 1122 3925 
L 1122 2188 
L 2331 2188 
Q 2847 2188 3089 2416 
Q 3331 2644 3331 3072 
z
" transform="scale(0.015625)"/>
        <path id="LiberationSans-43" d="M 2475 3981 
Q 2100 3981 1811 3856 
Q 1522 3731 1326 3500 
Q 1131 3269 1031 2944 
Q 931 2619 931 2222 
Q 931 1825 1039 1495 
Q 1147 1166 1348 928 
Q 1550 691 1842 559 
Q 2134 428 2500 428 
Q 2756 428 2967 495 
Q 3178 563 3348 684 
Q 3519 806 3653 973 
Q 3788 1141 3891 1344 
L 4378 1100 
Q 4259 853 4084 640 
Q 3909 428 3673 272 
Q 3438 116 3139 26 
Q 2841 -63 2472 -63 
Q 1938 -63 1536 107 
Q 1134 278 864 583 
Q 594 888 459 1306 
Q 325 1725 325 2222 
Q 325 2738 467 3153 
Q 609 3569 882 3861 
Q 1156 4153 1556 4311 
Q 1956 4469 2469 4469 
Q 3172 4469 3644 4194 
Q 4116 3919 4338 3378 
L 3772 3191 
Q 3709 3347 3603 3489 
Q 3497 3631 3337 3740 
Q 3178 3850 2964 3915 
Q 2750 3981 2475 3981 
z
" transform="scale(0.015625)"/>
        <path id="LiberationSans-49" d="M 591 0 
L 591 4403 
L 1188 4403 
L 1188 0 
L 591 0 
z
" transform="scale(0.015625)"/>
        <path id="LiberationSans-45" d="M 525 0 
L 525 4403 
L 3866 4403 
L 3866 3916 
L 1122 3916 
L 1122 2503 
L 3678 2503 
L 3678 2022 
L 1122 2022 
L 1122 488 
L 3994 488 
L 3994 0 
L 525 0 
z
" transform="scale(0.015625)"/>
       </defs>
       <use xlink:href="#LiberationSans-41"/>
       <use xlink:href="#LiberationSans-31" x="66.699219"/>
       <use xlink:href="#LiberationSans-30" x="122.314453"/>
       <use xlink:href="#LiberationSans-30" x="177.929688"/>
       <use xlink:href="#LiberationSans-50" x="233.544922"/>
       <use xlink:href="#LiberationSans-43" x="300.244141"/>
       <use xlink:href="#LiberationSans-49" x="372.460938"/>
       <use xlink:href="#LiberationSans-45" x="400.244141"/>
      </g>
     </g>
    </g>
   </g>
   <g id="matplotlib.axis_2">
    <g id="ytick_1">
     <g id="line2d_5">
      <path d="M 126 246.24 
L 481.090909 246.24 
" clip-path="url(#p59666f1c3a)" style="fill: none; stroke: #cccccc; stroke-width: 0.8; stroke-linecap: round"/>
     </g>
     <g id="line2d_6"/>
     <g id="text_5">
      <!-- 1x -->
      <g style="fill: #262626" transform="translate(108.770781 250.950469) scale(0.13 -0.13)">
       <defs>
        <path id="LiberationSans-78" d="M 2503 0 
L 1594 1388 
L 678 0 
L 72 0 
L 1275 1738 
L 128 3381 
L 750 3381 
L 1594 2066 
L 2431 3381 
L 3059 3381 
L 1913 1744 
L 3131 0 
L 2503 0 
z
" transform="scale(0.015625)"/>
       </defs>
       <use xlink:href="#LiberationSans-31"/>
       <use xlink:href="#LiberationSans-78" x="55.615234"/>
      </g>
     </g>
    </g>
    <g id="ytick_2">
     <g id="line2d_7">
      <path d="M 126 175.725158 
L 481.090909 175.725158 
" clip-path="url(#p59666f1c3a)" style="fill: none; stroke: #cccccc; stroke-width: 0.8; stroke-linecap: round"/>
     </g>
     <g id="line2d_8"/>
     <g id="text_6">
      <!-- 10x -->
      <g style="fill: #262626" transform="translate(101.541562 180.435626) scale(0.13 -0.13)">
       <use xlink:href="#LiberationSans-31"/>
       <use xlink:href="#LiberationSans-30" x="55.615234"/>
       <use xlink:href="#LiberationSans-78" x="111.230469"/>
      </g>
     </g>
    </g>
    <g id="ytick_3">
     <g id="line2d_9">
      <path d="M 126 105.210315 
L 481.090909 105.210315 
" clip-path="url(#p59666f1c3a)" style="fill: none; stroke: #cccccc; stroke-width: 0.8; stroke-linecap: round"/>
     </g>
     <g id="line2d_10"/>
     <g id="text_7">
      <!-- 100x -->
      <g style="fill: #262626" transform="translate(94.312344 109.920784) scale(0.13 -0.13)">
       <use xlink:href="#LiberationSans-31"/>
       <use xlink:href="#LiberationSans-30" x="55.615234"/>
       <use xlink:href="#LiberationSans-30" x="111.230469"/>
       <use xlink:href="#LiberationSans-78" x="166.845703"/>
      </g>
     </g>
    </g>
    <g id="ytick_4">
     <g id="line2d_11">
      <path d="M 126 34.695473 
L 481.090909 34.695473 
" clip-path="url(#p59666f1c3a)" style="fill: none; stroke: #cccccc; stroke-width: 0.8; stroke-linecap: round"/>
     </g>
     <g id="line2d_12"/>
     <g id="text_8">
      <!-- 1000x -->
      <g style="fill: #262626" transform="translate(87.083125 39.405942) scale(0.13 -0.13)">
       <use xlink:href="#LiberationSans-31"/>
       <use xlink:href="#LiberationSans-30" x="55.615234"/>
       <use xlink:href="#LiberationSans-30" x="111.230469"/>
       <use xlink:href="#LiberationSans-30" x="166.845703"/>
       <use xlink:href="#LiberationSans-78" x="222.460938"/>
      </g>
     </g>
    </g>
    <g id="ytick_5">
     <g id="line2d_13"/>
    </g>
    <g id="ytick_6">
     <g id="line2d_14"/>
    </g>
    <g id="ytick_7">
     <g id="line2d_15"/>
    </g>
    <g id="ytick_8">
     <g id="line2d_16"/>
    </g>
    <g id="ytick_9">
     <g id="line2d_17"/>
    </g>
    <g id="ytick_10">
     <g id="line2d_18"/>
    </g>
    <g id="ytick_11">
     <g id="line2d_19"/>
    </g>
    <g id="ytick_12">
     <g id="line2d_20"/>
    </g>
    <g id="ytick_13">
     <g id="line2d_21"/>
    </g>
    <g id="ytick_14">
     <g id="line2d_22"/>
    </g>
    <g id="ytick_15">
     <g id="line2d_23"/>
    </g>
    <g id="ytick_16">
     <g id="line2d_24"/>
    </g>
    <g id="ytick_17">
     <g id="line2d_25"/>
    </g>
    <g id="ytick_18">
     <g id="line2d_26"/>
    </g>
    <g id="ytick_19">
     <g id="line2d_27"/>
    </g>
    <g id="ytick_20">
     <g id="line2d_28"/>
    </g>
    <g id="ytick_21">
     <g id="line2d_29"/>
    </g>
    <g id="ytick_22">
     <g id="line2d_30"/>
    </g>
    <g id="ytick_23">
     <g id="line2d_31"/>
    </g>
    <g id="ytick_24">
     <g id="line2d_32"/>
    </g>
    <g id="ytick_25">
     <g id="line2d_33"/>
    </g>
    <g id="ytick_26">
     <g id="line2d_34"/>
    </g>
    <g id="ytick_27">
     <g id="line2d_35"/>
    </g>
    <g id="ytick_28">
     <g id="line2d_36"/>
    </g>
    <g id="ytick_29">
     <g id="line2d_37"/>
    </g>
    <g id="ytick_30">
     <g id="line2d_38"/>
    </g>
    <g id="text_9">
     <!-- Throughput -->
     <g style="fill: #262626" transform="translate(80.385625 178.682422) rotate(-90) scale(0.13 -0.13)">
      <defs>
       <path id="LiberationSans-72" d="M 444 0 
L 444 2594 
Q 444 2700 442 2811 
Q 441 2922 437 3025 
Q 434 3128 431 3218 
Q 428 3309 425 3381 
L 956 3381 
Q 959 3309 964 3217 
Q 969 3125 973 3028 
Q 978 2931 979 2842 
Q 981 2753 981 2691 
L 994 2691 
Q 1053 2884 1120 3026 
Q 1188 3169 1278 3261 
Q 1369 3353 1494 3398 
Q 1619 3444 1797 3444 
Q 1866 3444 1928 3433 
Q 1991 3422 2025 3413 
L 2025 2897 
Q 1969 2913 1894 2920 
Q 1819 2928 1725 2928 
Q 1531 2928 1395 2840 
Q 1259 2753 1173 2598 
Q 1088 2444 1047 2230 
Q 1006 2016 1006 1763 
L 1006 0 
L 444 0 
z
" transform="scale(0.015625)"/>
       <path id="LiberationSans-6f" d="M 3291 1694 
Q 3291 806 2900 371 
Q 2509 -63 1766 -63 
Q 1413 -63 1134 43 
Q 856 150 664 369 
Q 472 588 370 917 
Q 269 1247 269 1694 
Q 269 3444 1784 3444 
Q 2178 3444 2464 3334 
Q 2750 3225 2933 3006 
Q 3116 2788 3203 2459 
Q 3291 2131 3291 1694 
z
M 2700 1694 
Q 2700 2088 2639 2344 
Q 2578 2600 2461 2753 
Q 2344 2906 2175 2967 
Q 2006 3028 1794 3028 
Q 1578 3028 1404 2964 
Q 1231 2900 1109 2745 
Q 988 2591 923 2334 
Q 859 2078 859 1694 
Q 859 1300 928 1042 
Q 997 784 1117 631 
Q 1238 478 1402 415 
Q 1566 353 1759 353 
Q 1975 353 2150 414 
Q 2325 475 2447 628 
Q 2569 781 2634 1040 
Q 2700 1300 2700 1694 
z
" transform="scale(0.015625)"/>
       <path id="LiberationSans-75" d="M 981 3381 
L 981 1238 
Q 981 991 1017 825 
Q 1053 659 1134 557 
Q 1216 456 1348 414 
Q 1481 372 1678 372 
Q 1878 372 2039 442 
Q 2200 513 2314 645 
Q 2428 778 2490 973 
Q 2553 1169 2553 1422 
L 2553 3381 
L 3116 3381 
L 3116 722 
Q 3116 616 3117 498 
Q 3119 381 3122 276 
Q 3125 172 3128 97 
Q 3131 22 3134 0 
L 2603 0 
Q 2600 16 2597 84 
Q 2594 153 2589 242 
Q 2584 331 2581 423 
Q 2578 516 2578 578 
L 2569 578 
Q 2488 431 2391 312 
Q 2294 194 2166 111 
Q 2038 28 1872 -17 
Q 1706 -63 1488 -63 
Q 1206 -63 1003 6 
Q 800 75 669 219 
Q 538 363 477 588 
Q 416 813 416 1128 
L 416 3381 
L 981 3381 
z
" transform="scale(0.015625)"/>
       <path id="LiberationSans-67" d="M 1713 -1328 
Q 1422 -1328 1197 -1268 
Q 972 -1209 812 -1098 
Q 653 -988 553 -834 
Q 453 -681 409 -494 
L 975 -413 
Q 1031 -647 1223 -773 
Q 1416 -900 1728 -900 
Q 1919 -900 2075 -847 
Q 2231 -794 2340 -676 
Q 2450 -559 2509 -371 
Q 2569 -184 2569 84 
L 2569 628 
L 2563 628 
Q 2500 500 2408 383 
Q 2316 266 2183 175 
Q 2050 84 1875 29 
Q 1700 -25 1475 -25 
Q 1153 -25 923 83 
Q 694 191 548 406 
Q 403 622 336 942 
Q 269 1263 269 1684 
Q 269 2091 336 2416 
Q 403 2741 554 2967 
Q 706 3194 948 3314 
Q 1191 3434 1538 3434 
Q 1897 3434 2161 3270 
Q 2425 3106 2569 2803 
L 2575 2803 
Q 2575 2881 2579 2978 
Q 2584 3075 2589 3161 
Q 2594 3247 2600 3309 
Q 2606 3372 2613 3381 
L 3147 3381 
Q 3144 3353 3141 3286 
Q 3138 3219 3134 3125 
Q 3131 3031 3129 2917 
Q 3128 2803 3128 2681 
L 3128 97 
Q 3128 -613 2779 -970 
Q 2431 -1328 1713 -1328 
z
M 2569 1691 
Q 2569 2044 2492 2295 
Q 2416 2547 2291 2706 
Q 2166 2866 2005 2941 
Q 1844 3016 1675 3016 
Q 1459 3016 1304 2941 
Q 1150 2866 1048 2705 
Q 947 2544 898 2292 
Q 850 2041 850 1691 
Q 850 1325 898 1076 
Q 947 828 1047 675 
Q 1147 522 1300 456 
Q 1453 391 1666 391 
Q 1834 391 1995 462 
Q 2156 534 2284 690 
Q 2413 847 2491 1094 
Q 2569 1341 2569 1691 
z
" transform="scale(0.015625)"/>
       <path id="LiberationSans-70" d="M 3291 1706 
Q 3291 1322 3228 997 
Q 3166 672 3020 437 
Q 2875 203 2636 70 
Q 2397 -63 2047 -63 
Q 1684 -63 1412 75 
Q 1141 213 997 525 
L 981 525 
Q 984 519 986 469 
Q 988 419 989 344 
Q 991 269 992 176 
Q 994 84 994 -6 
L 994 -1328 
L 431 -1328 
L 431 2691 
Q 431 2813 429 2925 
Q 428 3038 425 3130 
Q 422 3222 419 3287 
Q 416 3353 413 3381 
L 956 3381 
Q 959 3372 964 3315 
Q 969 3259 973 3179 
Q 978 3100 983 3009 
Q 988 2919 988 2838 
L 1000 2838 
Q 1078 3000 1178 3114 
Q 1278 3228 1406 3301 
Q 1534 3375 1692 3408 
Q 1850 3441 2047 3441 
Q 2397 3441 2636 3316 
Q 2875 3191 3020 2964 
Q 3166 2738 3228 2417 
Q 3291 2097 3291 1706 
z
M 2700 1694 
Q 2700 2006 2662 2250 
Q 2625 2494 2533 2662 
Q 2441 2831 2287 2918 
Q 2134 3006 1903 3006 
Q 1716 3006 1550 2953 
Q 1384 2900 1261 2750 
Q 1138 2600 1066 2336 
Q 994 2072 994 1650 
Q 994 1291 1053 1042 
Q 1113 794 1227 641 
Q 1341 488 1509 420 
Q 1678 353 1897 353 
Q 2131 353 2286 443 
Q 2441 534 2533 706 
Q 2625 878 2662 1126 
Q 2700 1375 2700 1694 
z
" transform="scale(0.015625)"/>
      </defs>
      <use xlink:href="#LiberationSans-54"/>
      <use xlink:href="#LiberationSans-68" x="61.083984"/>
      <use xlink:href="#LiberationSans-72" x="116.699219"/>
      <use xlink:href="#LiberationSans-6f" x="150"/>
      <use xlink:href="#LiberationSans-75" x="205.615234"/>
      <use xlink:href="#LiberationSans-67" x="261.230469"/>
      <use xlink:href="#LiberationSans-68" x="316.845703"/>
      <use xlink:href="#LiberationSans-70" x="372.460938"/>
      <use xlink:href="#LiberationSans-75" x="428.076172"/>
      <use xlink:href="#LiberationSans-74" x="483.691406"/>
     </g>
    </g>
   </g>
   <g id="patch_3">
    <path d="M 134.877273 70761.082257 
L 205.895455 70761.082257 
L 205.895455 246.24 
L 134.877273 246.24 
z
" clip-path="url(#p59666f1c3a)" style="fill: #5d5d5d"/>
   </g>
   <g id="patch_4">
    <path d="M 223.65 70761.082257 
L 294.668182 70761.082257 
L 294.668182 122.471703 
L 223.65 122.471703 
z
" clip-path="url(#p59666f1c3a)" style="fill: #77b61a"/>
   </g>
   <g id="patch_5">
    <path d="M 312.422727 70761.082257 
L 383.440909 70761.082257 
L 383.440909 65.459161 
L 312.422727 65.459161 
z
" clip-path="url(#p59666f1c3a)" style="fill: #77b61a"/>
   </g>
   <g id="patch_6">
    <path d="M 401.195455 70761.082257 
L 472.213636 70761.082257 
L 472.213636 44.64 
L 401.195455 44.64 
z
" clip-path="url(#p59666f1c3a)" style="fill: #77b61a"/>
   </g>
   <g id="patch_7">
    <path d="M 170.386364 70761.082257 
L 170.386364 70761.082257 
L 170.386364 70761.082257 
L 170.386364 70761.082257 
z
" clip-path="url(#p59666f1c3a)" style="fill: #5d5d5d"/>
   </g>
   <g id="patch_8">
    <path d="M 170.386364 70761.082257 
L 170.386364 70761.082257 
L 170.386364 70761.082257 
L 170.386364 70761.082257 
z
" clip-path="url(#p59666f1c3a)" style="fill: #77b61a"/>
   </g>
   <g id="line2d_39">
    <path clip-path="url(#p59666f1c3a)" style="fill: none; stroke: #424242; stroke-width: 2.25; stroke-linecap: round"/>
   </g>
   <g id="line2d_40">
    <path clip-path="url(#p59666f1c3a)" style="fill: none; stroke: #424242; stroke-width: 2.25; stroke-linecap: round"/>
   </g>
   <g id="line2d_41">
    <path clip-path="url(#p59666f1c3a)" style="fill: none; stroke: #424242; stroke-width: 2.25; stroke-linecap: round"/>
   </g>
   <g id="line2d_42">
    <path clip-path="url(#p59666f1c3a)" style="fill: none; stroke: #424242; stroke-width: 2.25; stroke-linecap: round"/>
   </g>
   <g id="patch_9">
    <path d="M 126 256.32 
L 126 34.56 
" style="fill: none; stroke: #cccccc; stroke-linejoin: miter; stroke-linecap: square"/>
   </g>
   <g id="patch_10">
    <path d="M 481.090909 256.32 
L 481.090909 34.56 
" style="fill: none; stroke: #cccccc; stroke-linejoin: miter; stroke-linecap: square"/>
   </g>
   <g id="patch_11">
    <path d="M 126 256.32 
L 481.090909 256.32 
" style="fill: none; stroke: #cccccc; stroke-linejoin: miter; stroke-linecap: square"/>
   </g>
   <g id="patch_12">
    <path d="M 126 34.56 
L 481.090909 34.56 
" style="fill: none; stroke: #cccccc; stroke-linejoin: miter; stroke-linecap: square"/>
   </g>
   <g id="legend_1">
    <g id="patch_13">
     <path d="M 137.7 55.680938 
L 163.7 55.680938 
L 163.7 46.580938 
L 137.7 46.580938 
z
" style="fill: #5d5d5d"/>
    </g>
    <g id="text_10">
     <!-- MatchMS -->
     <g style="fill: #262626" transform="translate(174.1 55.680938) scale(0.13 -0.13)">
      <use xlink:href="#LiberationSans-4d"/>
      <use xlink:href="#LiberationSans-61" x="83.300781"/>
      <use xlink:href="#LiberationSans-74" x="138.916016"/>
      <use xlink:href="#LiberationSans-63" x="166.699219"/>
      <use xlink:href="#LiberationSans-68" x="216.699219"/>
      <use xlink:href="#LiberationSans-4d" x="272.314453"/>
      <use xlink:href="#LiberationSans-53" x="355.615234"/>
     </g>
    </g>
    <g id="patch_14">
     <path d="M 137.7 74.299375 
L 163.7 74.299375 
L 163.7 65.199375 
L 137.7 65.199375 
z
" style="fill: #77b61a"/>
    </g>
    <g id="text_11">
     <!-- CudaMS -->
     <g style="fill: #262626" transform="translate(174.1 74.299375) scale(0.13 -0.13)">
      <defs>
       <path id="LiberationSans-64" d="M 2566 544 
Q 2409 219 2151 78 
Q 1894 -63 1513 -63 
Q 872 -63 570 368 
Q 269 800 269 1675 
Q 269 3444 1513 3444 
Q 1897 3444 2153 3303 
Q 2409 3163 2566 2856 
L 2572 2856 
Q 2572 2888 2570 2955 
Q 2569 3022 2567 3095 
Q 2566 3169 2566 3234 
Q 2566 3300 2566 3328 
L 2566 4638 
L 3128 4638 
L 3128 697 
Q 3128 575 3129 462 
Q 3131 350 3134 256 
Q 3138 163 3141 95 
Q 3144 28 3147 0 
L 2609 0 
Q 2603 31 2598 89 
Q 2594 147 2589 222 
Q 2584 297 2581 380 
Q 2578 463 2578 544 
L 2566 544 
z
M 859 1694 
Q 859 1344 903 1094 
Q 947 844 1044 683 
Q 1141 522 1291 447 
Q 1441 372 1656 372 
Q 1878 372 2048 444 
Q 2219 516 2333 677 
Q 2447 838 2506 1097 
Q 2566 1356 2566 1731 
Q 2566 2091 2506 2339 
Q 2447 2588 2331 2741 
Q 2216 2894 2048 2961 
Q 1881 3028 1663 3028 
Q 1456 3028 1306 2956 
Q 1156 2884 1056 2725 
Q 956 2566 907 2311 
Q 859 2056 859 1694 
z
" transform="scale(0.015625)"/>
      </defs>
      <use xlink:href="#LiberationSans-43"/>
      <use xlink:href="#LiberationSans-75" x="72.216797"/>
      <use xlink:href="#LiberationSans-64" x="127.832031"/>
      <use xlink:href="#LiberationSans-61" x="183.447266"/>
      <use xlink:href="#LiberationSans-4d" x="239.0625"/>
      <use xlink:href="#LiberationSans-53" x="322.363281"/>
     </g>
    </g>
   </g>
  </g>
  <g id="axes_2">
   <g id="patch_15">
    <path d="M 552.109091 256.32 
L 907.2 256.32 
L 907.2 34.56 
L 552.109091 34.56 
z
" style="fill: #ffffff"/>
   </g>
   <g id="matplotlib.axis_3">
    <g id="xtick_5">
     <g id="line2d_43">
      <path d="M 603.429045 256.32 
L 603.429045 34.56 
" clip-path="url(#pb9b424cd12)" style="fill: none; stroke: #cccccc; stroke-width: 0.8; stroke-linecap: round"/>
     </g>
     <g id="line2d_44"/>
     <g id="text_12">
      <!-- $\mathdefault{10^{4}}$ -->
      <g style="fill: #262626" transform="translate(593.419045 269.240938) scale(0.13 -0.13)">
       <use xlink:href="#LiberationSans-31" transform="translate(0 0.8625)"/>
       <use xlink:href="#LiberationSans-30" transform="translate(55.615234 0.8625)"/>
       <use xlink:href="#LiberationSans-34" transform="translate(112.154961 37.842188) scale(0.7)"/>
      </g>
     </g>
    </g>
    <g id="xtick_6">
     <g id="line2d_45">
      <path d="M 673.787961 256.32 
L 673.787961 34.56 
" clip-path="url(#pb9b424cd12)" style="fill: none; stroke: #cccccc; stroke-width: 0.8; stroke-linecap: round"/>
     </g>
     <g id="line2d_46"/>
     <g id="text_13">
      <!-- $\mathdefault{10^{6}}$ -->
      <g style="fill: #262626" transform="translate(663.777961 269.240938) scale(0.13 -0.13)">
       <defs>
        <path id="LiberationSans-36" d="M 3278 1441 
Q 3278 1109 3186 832 
Q 3094 556 2914 357 
Q 2734 159 2468 48 
Q 2203 -63 1856 -63 
Q 1472 -63 1184 84 
Q 897 231 706 507 
Q 516 784 420 1186 
Q 325 1588 325 2100 
Q 325 2688 433 3131 
Q 541 3575 744 3872 
Q 947 4169 1239 4319 
Q 1531 4469 1900 4469 
Q 2125 4469 2322 4422 
Q 2519 4375 2680 4270 
Q 2841 4166 2962 3994 
Q 3084 3822 3156 3572 
L 2619 3475 
Q 2531 3759 2339 3886 
Q 2147 4013 1894 4013 
Q 1663 4013 1475 3903 
Q 1288 3794 1156 3576 
Q 1025 3359 954 3031 
Q 884 2703 884 2266 
Q 1038 2550 1316 2698 
Q 1594 2847 1953 2847 
Q 2253 2847 2497 2750 
Q 2741 2653 2914 2470 
Q 3088 2288 3183 2027 
Q 3278 1766 3278 1441 
z
M 2706 1416 
Q 2706 1644 2650 1828 
Q 2594 2013 2481 2142 
Q 2369 2272 2203 2342 
Q 2038 2413 1819 2413 
Q 1666 2413 1509 2367 
Q 1353 2322 1226 2220 
Q 1100 2119 1020 1953 
Q 941 1788 941 1550 
Q 941 1306 1003 1095 
Q 1066 884 1183 728 
Q 1300 572 1465 481 
Q 1631 391 1838 391 
Q 2041 391 2202 461 
Q 2363 531 2475 664 
Q 2588 797 2647 987 
Q 2706 1178 2706 1416 
z
" transform="scale(0.015625)"/>
       </defs>
       <use xlink:href="#LiberationSans-31" transform="translate(0 0.140625)"/>
       <use xlink:href="#LiberationSans-30" transform="translate(55.615234 0.140625)"/>
       <use xlink:href="#LiberationSans-36" transform="translate(112.154961 37.120312) scale(0.7)"/>
      </g>
     </g>
    </g>
    <g id="xtick_7">
     <g id="line2d_47">
      <path d="M 744.146877 256.32 
L 744.146877 34.56 
" clip-path="url(#pb9b424cd12)" style="fill: none; stroke: #cccccc; stroke-width: 0.8; stroke-linecap: round"/>
     </g>
     <g id="line2d_48"/>
     <g id="text_14">
      <!-- $\mathdefault{10^{8}}$ -->
      <g style="fill: #262626" transform="translate(734.136877 269.240938) scale(0.13 -0.13)">
       <defs>
        <path id="LiberationSans-38" d="M 3281 1228 
Q 3281 947 3192 711 
Q 3103 475 2920 303 
Q 2738 131 2453 34 
Q 2169 -63 1781 -63 
Q 1394 -63 1111 34 
Q 828 131 642 301 
Q 456 472 367 708 
Q 278 944 278 1222 
Q 278 1463 351 1650 
Q 425 1838 548 1973 
Q 672 2109 830 2192 
Q 988 2275 1156 2303 
L 1156 2316 
Q 972 2359 826 2456 
Q 681 2553 582 2689 
Q 484 2825 432 2990 
Q 381 3156 381 3341 
Q 381 3572 470 3776 
Q 559 3981 734 4136 
Q 909 4291 1168 4380 
Q 1428 4469 1769 4469 
Q 2128 4469 2392 4378 
Q 2656 4288 2829 4133 
Q 3003 3978 3087 3772 
Q 3172 3566 3172 3334 
Q 3172 3153 3120 2987 
Q 3069 2822 2970 2686 
Q 2872 2550 2726 2454 
Q 2581 2359 2391 2322 
L 2391 2309 
Q 2581 2278 2743 2195 
Q 2906 2113 3025 1977 
Q 3144 1841 3212 1653 
Q 3281 1466 3281 1228 
z
M 2588 3303 
Q 2588 3469 2545 3606 
Q 2503 3744 2406 3842 
Q 2309 3941 2153 3995 
Q 1997 4050 1769 4050 
Q 1547 4050 1394 3995 
Q 1241 3941 1142 3842 
Q 1044 3744 1000 3606 
Q 956 3469 956 3303 
Q 956 3172 990 3034 
Q 1025 2897 1115 2784 
Q 1206 2672 1365 2600 
Q 1525 2528 1775 2528 
Q 2041 2528 2202 2600 
Q 2363 2672 2448 2784 
Q 2534 2897 2561 3034 
Q 2588 3172 2588 3303 
z
M 2697 1281 
Q 2697 1441 2653 1589 
Q 2609 1738 2503 1852 
Q 2397 1966 2217 2036 
Q 2038 2106 1769 2106 
Q 1522 2106 1348 2036 
Q 1175 1966 1067 1850 
Q 959 1734 909 1582 
Q 859 1431 859 1269 
Q 859 1066 909 898 
Q 959 731 1068 611 
Q 1178 491 1356 425 
Q 1534 359 1788 359 
Q 2044 359 2219 425 
Q 2394 491 2500 611 
Q 2606 731 2651 901 
Q 2697 1072 2697 1281 
z
" transform="scale(0.015625)"/>
       </defs>
       <use xlink:href="#LiberationSans-31" transform="translate(0 0.140625)"/>
       <use xlink:href="#LiberationSans-30" transform="translate(55.615234 0.140625)"/>
       <use xlink:href="#LiberationSans-38" transform="translate(112.154961 37.120312) scale(0.7)"/>
      </g>
     </g>
    </g>
    <g id="xtick_8">
     <g id="line2d_49">
      <path d="M 814.505793 256.32 
L 814.505793 34.56 
" clip-path="url(#pb9b424cd12)" style="fill: none; stroke: #cccccc; stroke-width: 0.8; stroke-linecap: round"/>
     </g>
     <g id="line2d_50"/>
     <g id="text_15">
      <!-- $\mathdefault{10^{10}}$ -->
      <g style="fill: #262626" transform="translate(801.960793 269.240938) scale(0.13 -0.13)">
       <use xlink:href="#LiberationSans-31" transform="translate(0 0.140625)"/>
       <use xlink:href="#LiberationSans-30" transform="translate(55.615234 0.140625)"/>
       <use xlink:href="#LiberationSans-31" transform="translate(112.154961 37.120312) scale(0.7)"/>
       <use xlink:href="#LiberationSans-30" transform="translate(151.085625 37.120312) scale(0.7)"/>
      </g>
     </g>
    </g>
    <g id="xtick_9">
     <g id="line2d_51">
      <path d="M 884.864709 256.32 
L 884.864709 34.56 
" clip-path="url(#pb9b424cd12)" style="fill: none; stroke: #cccccc; stroke-width: 0.8; stroke-linecap: round"/>
     </g>
     <g id="line2d_52"/>
     <g id="text_16">
      <!-- $\mathdefault{10^{12}}$ -->
      <g style="fill: #262626" transform="translate(872.319709 269.240938) scale(0.13 -0.13)">
       <defs>
        <path id="LiberationSans-32" d="M 322 0 
L 322 397 
Q 481 763 711 1042 
Q 941 1322 1194 1548 
Q 1447 1775 1695 1969 
Q 1944 2163 2144 2356 
Q 2344 2550 2467 2762 
Q 2591 2975 2591 3244 
Q 2591 3431 2534 3573 
Q 2478 3716 2372 3812 
Q 2266 3909 2117 3957 
Q 1969 4006 1788 4006 
Q 1619 4006 1470 3959 
Q 1322 3913 1206 3819 
Q 1091 3725 1017 3586 
Q 944 3447 922 3263 
L 347 3316 
Q 375 3553 478 3762 
Q 581 3972 762 4130 
Q 944 4288 1198 4378 
Q 1453 4469 1788 4469 
Q 2116 4469 2372 4391 
Q 2628 4313 2804 4159 
Q 2981 4006 3075 3781 
Q 3169 3556 3169 3263 
Q 3169 3041 3089 2841 
Q 3009 2641 2876 2459 
Q 2744 2278 2569 2109 
Q 2394 1941 2203 1780 
Q 2013 1619 1819 1461 
Q 1625 1303 1454 1143 
Q 1284 984 1150 820 
Q 1016 656 941 478 
L 3238 478 
L 3238 0 
L 322 0 
z
" transform="scale(0.015625)"/>
       </defs>
       <use xlink:href="#LiberationSans-31" transform="translate(0 0.140625)"/>
       <use xlink:href="#LiberationSans-30" transform="translate(55.615234 0.140625)"/>
       <use xlink:href="#LiberationSans-31" transform="translate(112.154961 37.120312) scale(0.7)"/>
       <use xlink:href="#LiberationSans-32" transform="translate(151.085625 37.120312) scale(0.7)"/>
      </g>
     </g>
    </g>
    <g id="text_17">
     <!-- Number of pairs -->
     <g style="fill: #262626" transform="translate(683.418217 285.359375) scale(0.13 -0.13)">
      <defs>
       <path id="LiberationSans-4e" d="M 3381 0 
L 1025 3750 
Q 1031 3597 1041 3447 
Q 1047 3319 1051 3176 
Q 1056 3034 1056 2925 
L 1056 0 
L 525 0 
L 525 4403 
L 1219 4403 
L 3600 628 
Q 3591 781 3581 934 
Q 3575 1066 3569 1220 
Q 3563 1375 3563 1516 
L 3563 4403 
L 4100 4403 
L 4100 0 
L 3381 0 
z
" transform="scale(0.015625)"/>
       <path id="LiberationSans-6d" d="M 2400 0 
L 2400 2144 
Q 2400 2391 2369 2556 
Q 2338 2722 2264 2823 
Q 2191 2925 2072 2967 
Q 1953 3009 1781 3009 
Q 1603 3009 1459 2939 
Q 1316 2869 1214 2736 
Q 1113 2603 1058 2408 
Q 1003 2213 1003 1959 
L 1003 0 
L 444 0 
L 444 2659 
Q 444 2766 442 2883 
Q 441 3000 437 3104 
Q 434 3209 431 3284 
Q 428 3359 425 3381 
L 956 3381 
Q 959 3366 962 3297 
Q 966 3228 970 3139 
Q 975 3050 978 2958 
Q 981 2866 981 2803 
L 991 2803 
Q 1066 2950 1153 3069 
Q 1241 3188 1358 3270 
Q 1475 3353 1626 3398 
Q 1778 3444 1978 3444 
Q 2363 3444 2586 3291 
Q 2809 3138 2897 2803 
L 2906 2803 
Q 2981 2950 3075 3069 
Q 3169 3188 3294 3270 
Q 3419 3353 3575 3398 
Q 3731 3444 3931 3444 
Q 4188 3444 4373 3375 
Q 4559 3306 4678 3162 
Q 4797 3019 4853 2792 
Q 4909 2566 4909 2253 
L 4909 0 
L 4353 0 
L 4353 2144 
Q 4353 2391 4322 2556 
Q 4291 2722 4217 2823 
Q 4144 2925 4025 2967 
Q 3906 3009 3734 3009 
Q 3556 3009 3412 2942 
Q 3269 2875 3167 2744 
Q 3066 2613 3011 2416 
Q 2956 2219 2956 1959 
L 2956 0 
L 2400 0 
z
" transform="scale(0.015625)"/>
       <path id="LiberationSans-62" d="M 3291 1706 
Q 3291 -63 2047 -63 
Q 1663 -63 1408 76 
Q 1153 216 994 525 
L 988 525 
Q 988 444 983 356 
Q 978 269 973 194 
Q 969 119 964 66 
Q 959 13 956 0 
L 413 0 
Q 416 28 419 95 
Q 422 163 425 256 
Q 428 350 429 462 
Q 431 575 431 697 
L 431 4638 
L 994 4638 
L 994 3316 
Q 994 3222 992 3136 
Q 991 3050 988 2984 
Q 984 2906 981 2838 
L 994 2838 
Q 1150 3163 1408 3303 
Q 1666 3444 2047 3444 
Q 2688 3444 2989 3012 
Q 3291 2581 3291 1706 
z
M 2700 1688 
Q 2700 2038 2656 2288 
Q 2613 2538 2516 2698 
Q 2419 2859 2269 2934 
Q 2119 3009 1903 3009 
Q 1681 3009 1511 2937 
Q 1341 2866 1227 2706 
Q 1113 2547 1053 2287 
Q 994 2028 994 1653 
Q 994 1291 1053 1044 
Q 1113 797 1227 642 
Q 1341 488 1509 420 
Q 1678 353 1897 353 
Q 2103 353 2253 425 
Q 2403 497 2503 656 
Q 2603 816 2651 1070 
Q 2700 1325 2700 1688 
z
" transform="scale(0.015625)"/>
       <path id="LiberationSans-65" d="M 863 1572 
Q 863 1306 917 1082 
Q 972 859 1086 698 
Q 1200 538 1378 448 
Q 1556 359 1806 359 
Q 2172 359 2392 506 
Q 2613 653 2691 878 
L 3184 738 
Q 3131 597 3036 455 
Q 2941 313 2781 198 
Q 2622 84 2383 10 
Q 2144 -63 1806 -63 
Q 1056 -63 664 384 
Q 272 831 272 1713 
Q 272 2188 390 2517 
Q 509 2847 715 3053 
Q 922 3259 1197 3351 
Q 1472 3444 1784 3444 
Q 2209 3444 2495 3306 
Q 2781 3169 2954 2926 
Q 3128 2684 3201 2356 
Q 3275 2028 3275 1647 
L 3275 1572 
L 863 1572 
z
M 2694 2003 
Q 2647 2538 2422 2783 
Q 2197 3028 1775 3028 
Q 1634 3028 1479 2983 
Q 1325 2938 1194 2822 
Q 1063 2706 972 2507 
Q 881 2309 869 2003 
L 2694 2003 
z
" transform="scale(0.015625)"/>
       <path id="LiberationSans-20" transform="scale(0.015625)"/>
       <path id="LiberationSans-66" d="M 1128 2972 
L 1128 0 
L 566 0 
L 566 2972 
L 91 2972 
L 91 3381 
L 566 3381 
L 566 3763 
Q 566 3947 600 4105 
Q 634 4263 726 4380 
Q 819 4497 978 4564 
Q 1138 4631 1391 4631 
Q 1491 4631 1598 4622 
Q 1706 4613 1788 4594 
L 1788 4166 
Q 1734 4175 1664 4183 
Q 1594 4191 1538 4191 
Q 1413 4191 1333 4156 
Q 1253 4122 1208 4058 
Q 1163 3994 1145 3900 
Q 1128 3806 1128 3684 
L 1128 3381 
L 1788 3381 
L 1788 2972 
L 1128 2972 
z
" transform="scale(0.015625)"/>
       <path id="LiberationSans-69" d="M 428 4100 
L 428 4638 
L 991 4638 
L 991 4100 
L 428 4100 
z
M 428 0 
L 428 3381 
L 991 3381 
L 991 0 
L 428 0 
z
" transform="scale(0.015625)"/>
       <path id="LiberationSans-73" d="M 2969 934 
Q 2969 697 2876 511 
Q 2784 325 2609 198 
Q 2434 72 2179 4 
Q 1925 -63 1597 -63 
Q 1303 -63 1067 -17 
Q 831 28 653 128 
Q 475 228 354 392 
Q 234 556 178 794 
L 675 891 
Q 747 619 972 492 
Q 1197 366 1597 366 
Q 1778 366 1929 391 
Q 2081 416 2190 477 
Q 2300 538 2361 639 
Q 2422 741 2422 891 
Q 2422 1044 2350 1142 
Q 2278 1241 2150 1306 
Q 2022 1372 1839 1420 
Q 1656 1469 1438 1528 
Q 1234 1581 1034 1647 
Q 834 1713 673 1820 
Q 513 1928 413 2087 
Q 313 2247 313 2488 
Q 313 2950 642 3192 
Q 972 3434 1603 3434 
Q 2163 3434 2492 3237 
Q 2822 3041 2909 2606 
L 2403 2544 
Q 2375 2675 2300 2764 
Q 2225 2853 2119 2908 
Q 2013 2963 1880 2986 
Q 1747 3009 1603 3009 
Q 1222 3009 1040 2893 
Q 859 2778 859 2544 
Q 859 2406 926 2317 
Q 994 2228 1114 2167 
Q 1234 2106 1403 2061 
Q 1572 2016 1775 1966 
Q 1909 1931 2050 1892 
Q 2191 1853 2323 1798 
Q 2456 1744 2573 1670 
Q 2691 1597 2778 1494 
Q 2866 1391 2917 1253 
Q 2969 1116 2969 934 
z
" transform="scale(0.015625)"/>
      </defs>
      <use xlink:href="#LiberationSans-4e"/>
      <use xlink:href="#LiberationSans-75" x="72.216797"/>
      <use xlink:href="#LiberationSans-6d" x="127.832031"/>
      <use xlink:href="#LiberationSans-62" x="211.132812"/>
      <use xlink:href="#LiberationSans-65" x="266.748047"/>
      <use xlink:href="#LiberationSans-72" x="322.363281"/>
      <use xlink:href="#LiberationSans-20" x="355.664062"/>
      <use xlink:href="#LiberationSans-6f" x="383.447266"/>
      <use xlink:href="#LiberationSans-66" x="439.0625"/>
      <use xlink:href="#LiberationSans-20" x="466.845703"/>
      <use xlink:href="#LiberationSans-70" x="494.628906"/>
      <use xlink:href="#LiberationSans-61" x="550.244141"/>
      <use xlink:href="#LiberationSans-69" x="605.859375"/>
      <use xlink:href="#LiberationSans-72" x="628.076172"/>
      <use xlink:href="#LiberationSans-73" x="661.376953"/>
     </g>
    </g>
   </g>
   <g id="matplotlib.axis_4">
    <g id="ytick_31">
     <g id="line2d_53">
      <path d="M 552.109091 236.090234 
L 907.2 236.090234 
" clip-path="url(#pb9b424cd12)" style="fill: none; stroke: #cccccc; stroke-width: 0.8; stroke-linecap: round"/>
     </g>
     <g id="line2d_54"/>
     <g id="text_18">
      <!-- 1 s -->
      <g style="fill: #262626" transform="translate(531.26831 240.800702) scale(0.13 -0.13)">
       <use xlink:href="#LiberationSans-31"/>
       <use xlink:href="#LiberationSans-20" x="55.615234"/>
       <use xlink:href="#LiberationSans-73" x="83.398438"/>
      </g>
     </g>
    </g>
    <g id="ytick_32">
     <g id="line2d_55">
      <path d="M 552.109091 194.170254 
L 907.2 194.170254 
" clip-path="url(#pb9b424cd12)" style="fill: none; stroke: #cccccc; stroke-width: 0.8; stroke-linecap: round"/>
     </g>
     <g id="line2d_56"/>
     <g id="text_19">
      <!-- 1 min -->
      <g style="fill: #262626" transform="translate(516.82206 198.880723) scale(0.13 -0.13)">
       <defs>
        <path id="LiberationSans-6e" d="M 2578 0 
L 2578 2144 
Q 2578 2391 2542 2556 
Q 2506 2722 2425 2823 
Q 2344 2925 2211 2967 
Q 2078 3009 1881 3009 
Q 1681 3009 1520 2939 
Q 1359 2869 1245 2736 
Q 1131 2603 1068 2408 
Q 1006 2213 1006 1959 
L 1006 0 
L 444 0 
L 444 2659 
Q 444 2766 442 2883 
Q 441 3000 437 3104 
Q 434 3209 431 3284 
Q 428 3359 425 3381 
L 956 3381 
Q 959 3366 962 3297 
Q 966 3228 970 3139 
Q 975 3050 978 2958 
Q 981 2866 981 2803 
L 991 2803 
Q 1072 2950 1169 3069 
Q 1266 3188 1394 3270 
Q 1522 3353 1687 3398 
Q 1853 3444 2072 3444 
Q 2353 3444 2556 3375 
Q 2759 3306 2890 3162 
Q 3022 3019 3083 2792 
Q 3144 2566 3144 2253 
L 3144 0 
L 2578 0 
z
" transform="scale(0.015625)"/>
       </defs>
       <use xlink:href="#LiberationSans-31"/>
       <use xlink:href="#LiberationSans-20" x="55.615234"/>
       <use xlink:href="#LiberationSans-6d" x="83.398438"/>
       <use xlink:href="#LiberationSans-69" x="166.699219"/>
       <use xlink:href="#LiberationSans-6e" x="188.916016"/>
      </g>
     </g>
    </g>
    <g id="ytick_33">
     <g id="line2d_57">
      <path d="M 552.109091 152.250275 
L 907.2 152.250275 
" clip-path="url(#pb9b424cd12)" style="fill: none; stroke: #cccccc; stroke-width: 0.8; stroke-linecap: round"/>
     </g>
     <g id="line2d_58"/>
     <g id="text_20">
      <!-- 1.0 h -->
      <g style="fill: #262626" transform="translate(519.69831 156.960744) scale(0.13 -0.13)">
       <defs>
        <path id="LiberationSans-2e" d="M 584 0 
L 584 684 
L 1194 684 
L 1194 0 
L 584 0 
z
" transform="scale(0.015625)"/>
       </defs>
       <use xlink:href="#LiberationSans-31"/>
       <use xlink:href="#LiberationSans-2e" x="55.615234"/>
       <use xlink:href="#LiberationSans-30" x="83.398438"/>
       <use xlink:href="#LiberationSans-20" x="139.013672"/>
       <use xlink:href="#LiberationSans-68" x="166.796875"/>
      </g>
     </g>
    </g>
    <g id="ytick_34">
     <g id="line2d_59">
      <path d="M 552.109091 110.330295 
L 907.2 110.330295 
" clip-path="url(#pb9b424cd12)" style="fill: none; stroke: #cccccc; stroke-width: 0.8; stroke-linecap: round"/>
     </g>
     <g id="line2d_60"/>
     <g id="text_21">
      <!-- 2.5 d -->
      <g style="fill: #262626" transform="translate(519.69831 115.040764) scale(0.13 -0.13)">
       <defs>
        <path id="LiberationSans-35" d="M 3291 1434 
Q 3291 1103 3191 828 
Q 3091 553 2894 354 
Q 2697 156 2405 46 
Q 2113 -63 1728 -63 
Q 1381 -63 1123 18 
Q 866 100 687 242 
Q 509 384 404 575 
Q 300 766 256 984 
L 825 1050 
Q 859 925 921 808 
Q 984 691 1092 598 
Q 1200 506 1358 451 
Q 1516 397 1741 397 
Q 1959 397 2137 464 
Q 2316 531 2442 662 
Q 2569 794 2637 984 
Q 2706 1175 2706 1422 
Q 2706 1625 2640 1795 
Q 2575 1966 2453 2089 
Q 2331 2213 2154 2281 
Q 1978 2350 1753 2350 
Q 1613 2350 1494 2325 
Q 1375 2300 1273 2256 
Q 1172 2213 1089 2155 
Q 1006 2097 934 2034 
L 384 2034 
L 531 4403 
L 3034 4403 
L 3034 3925 
L 1044 3925 
L 959 2528 
Q 1109 2644 1334 2726 
Q 1559 2809 1869 2809 
Q 2197 2809 2459 2709 
Q 2722 2609 2906 2426 
Q 3091 2244 3191 1991 
Q 3291 1738 3291 1434 
z
" transform="scale(0.015625)"/>
       </defs>
       <use xlink:href="#LiberationSans-32"/>
       <use xlink:href="#LiberationSans-2e" x="55.615234"/>
       <use xlink:href="#LiberationSans-35" x="83.398438"/>
       <use xlink:href="#LiberationSans-20" x="139.013672"/>
       <use xlink:href="#LiberationSans-64" x="166.796875"/>
      </g>
     </g>
    </g>
    <g id="ytick_35">
     <g id="line2d_61">
      <path d="M 552.109091 68.410316 
L 907.2 68.410316 
" clip-path="url(#pb9b424cd12)" style="fill: none; stroke: #cccccc; stroke-width: 0.8; stroke-linecap: round"/>
     </g>
     <g id="line2d_62"/>
     <g id="text_22">
      <!-- 150.0 d -->
      <g style="fill: #262626" transform="translate(505.239872 73.120785) scale(0.13 -0.13)">
       <use xlink:href="#LiberationSans-31"/>
       <use xlink:href="#LiberationSans-35" x="55.615234"/>
       <use xlink:href="#LiberationSans-30" x="111.230469"/>
       <use xlink:href="#LiberationSans-2e" x="166.845703"/>
       <use xlink:href="#LiberationSans-30" x="194.628906"/>
       <use xlink:href="#LiberationSans-20" x="250.244141"/>
       <use xlink:href="#LiberationSans-64" x="278.027344"/>
      </g>
     </g>
    </g>
    <g id="ytick_36">
     <g id="line2d_63"/>
    </g>
    <g id="ytick_37">
     <g id="line2d_64"/>
    </g>
    <g id="ytick_38">
     <g id="line2d_65"/>
    </g>
    <g id="ytick_39">
     <g id="line2d_66"/>
    </g>
    <g id="ytick_40">
     <g id="line2d_67"/>
    </g>
    <g id="ytick_41">
     <g id="line2d_68"/>
    </g>
    <g id="ytick_42">
     <g id="line2d_69"/>
    </g>
    <g id="ytick_43">
     <g id="line2d_70"/>
    </g>
    <g id="ytick_44">
     <g id="line2d_71"/>
    </g>
    <g id="ytick_45">
     <g id="line2d_72"/>
    </g>
    <g id="ytick_46">
     <g id="line2d_73"/>
    </g>
    <g id="ytick_47">
     <g id="line2d_74"/>
    </g>
    <g id="ytick_48">
     <g id="line2d_75"/>
    </g>
    <g id="ytick_49">
     <g id="line2d_76"/>
    </g>
    <g id="ytick_50">
     <g id="line2d_77"/>
    </g>
    <g id="ytick_51">
     <g id="line2d_78"/>
    </g>
    <g id="ytick_52">
     <g id="line2d_79"/>
    </g>
    <g id="ytick_53">
     <g id="line2d_80"/>
    </g>
    <g id="ytick_54">
     <g id="line2d_81"/>
    </g>
    <g id="ytick_55">
     <g id="line2d_82"/>
    </g>
    <g id="ytick_56">
     <g id="line2d_83"/>
    </g>
    <g id="ytick_57">
     <g id="line2d_84"/>
    </g>
    <g id="ytick_58">
     <g id="line2d_85"/>
    </g>
    <g id="ytick_59">
     <g id="line2d_86"/>
    </g>
    <g id="ytick_60">
     <g id="line2d_87"/>
    </g>
    <g id="ytick_61">
     <g id="line2d_88"/>
    </g>
    <g id="ytick_62">
     <g id="line2d_89"/>
    </g>
    <g id="ytick_63">
     <g id="line2d_90"/>
    </g>
    <g id="ytick_64">
     <g id="line2d_91"/>
    </g>
    <g id="ytick_65">
     <g id="line2d_92"/>
    </g>
    <g id="ytick_66">
     <g id="line2d_93"/>
    </g>
    <g id="ytick_67">
     <g id="line2d_94"/>
    </g>
    <g id="ytick_68">
     <g id="line2d_95"/>
    </g>
    <g id="ytick_69">
     <g id="line2d_96"/>
    </g>
    <g id="ytick_70">
     <g id="line2d_97"/>
    </g>
    <g id="ytick_71">
     <g id="line2d_98"/>
    </g>
    <g id="ytick_72">
     <g id="line2d_99"/>
    </g>
    <g id="ytick_73">
     <g id="line2d_100"/>
    </g>
    <g id="ytick_74">
     <g id="line2d_101"/>
    </g>
    <g id="ytick_75">
     <g id="line2d_102"/>
    </g>
    <g id="ytick_76">
     <g id="line2d_103"/>
    </g>
    <g id="ytick_77">
     <g id="line2d_104"/>
    </g>
    <g id="ytick_78">
     <g id="line2d_105"/>
    </g>
    <g id="ytick_79">
     <g id="line2d_106"/>
    </g>
    <g id="ytick_80">
     <g id="line2d_107"/>
    </g>
    <g id="ytick_81">
     <g id="line2d_108"/>
    </g>
    <g id="ytick_82">
     <g id="line2d_109"/>
    </g>
    <g id="ytick_83">
     <g id="line2d_110"/>
    </g>
    <g id="ytick_84">
     <g id="line2d_111"/>
    </g>
    <g id="ytick_85">
     <g id="line2d_112"/>
    </g>
    <g id="ytick_86">
     <g id="line2d_113"/>
    </g>
    <g id="ytick_87">
     <g id="line2d_114"/>
    </g>
    <g id="ytick_88">
     <g id="line2d_115"/>
    </g>
    <g id="ytick_89">
     <g id="line2d_116"/>
    </g>
    <g id="ytick_90">
     <g id="line2d_117"/>
    </g>
    <g id="ytick_91">
     <g id="line2d_118"/>
    </g>
    <g id="ytick_92">
     <g id="line2d_119"/>
    </g>
    <g id="ytick_93">
     <g id="line2d_120"/>
    </g>
    <g id="ytick_94">
     <g id="line2d_121"/>
    </g>
    <g id="ytick_95">
     <g id="line2d_122"/>
    </g>
    <g id="ytick_96">
     <g id="line2d_123"/>
    </g>
    <g id="ytick_97">
     <g id="line2d_124"/>
    </g>
    <g id="ytick_98">
     <g id="line2d_125"/>
    </g>
    <g id="ytick_99">
     <g id="line2d_126"/>
    </g>
    <g id="ytick_100">
     <g id="line2d_127"/>
    </g>
    <g id="ytick_101">
     <g id="line2d_128"/>
    </g>
    <g id="ytick_102">
     <g id="line2d_129"/>
    </g>
    <g id="ytick_103">
     <g id="line2d_130"/>
    </g>
    <g id="ytick_104">
     <g id="line2d_131"/>
    </g>
    <g id="ytick_105">
     <g id="line2d_132"/>
    </g>
    <g id="ytick_106">
     <g id="line2d_133"/>
    </g>
    <g id="ytick_107">
     <g id="line2d_134"/>
    </g>
    <g id="ytick_108">
     <g id="line2d_135"/>
    </g>
    <g id="ytick_109">
     <g id="line2d_136"/>
    </g>
    <g id="ytick_110">
     <g id="line2d_137"/>
    </g>
    <g id="ytick_111">
     <g id="line2d_138"/>
    </g>
    <g id="ytick_112">
     <g id="line2d_139"/>
    </g>
    <g id="ytick_113">
     <g id="line2d_140"/>
    </g>
    <g id="ytick_114">
     <g id="line2d_141"/>
    </g>
    <g id="ytick_115">
     <g id="line2d_142"/>
    </g>
    <g id="ytick_116">
     <g id="line2d_143"/>
    </g>
    <g id="ytick_117">
     <g id="line2d_144"/>
    </g>
    <g id="ytick_118">
     <g id="line2d_145"/>
    </g>
    <g id="ytick_119">
     <g id="line2d_146"/>
    </g>
    <g id="ytick_120">
     <g id="line2d_147"/>
    </g>
    <g id="ytick_121">
     <g id="line2d_148"/>
    </g>
    <g id="ytick_122">
     <g id="line2d_149"/>
    </g>
    <g id="ytick_123">
     <g id="line2d_150"/>
    </g>
    <g id="ytick_124">
     <g id="line2d_151"/>
    </g>
    <g id="ytick_125">
     <g id="line2d_152"/>
    </g>
    <g id="ytick_126">
     <g id="line2d_153"/>
    </g>
    <g id="ytick_127">
     <g id="line2d_154"/>
    </g>
    <g id="ytick_128">
     <g id="line2d_155"/>
    </g>
    <g id="ytick_129">
     <g id="line2d_156"/>
    </g>
    <g id="ytick_130">
     <g id="line2d_157"/>
    </g>
    <g id="ytick_131">
     <g id="line2d_158"/>
    </g>
    <g id="ytick_132">
     <g id="line2d_159"/>
    </g>
    <g id="ytick_133">
     <g id="line2d_160"/>
    </g>
    <g id="ytick_134">
     <g id="line2d_161"/>
    </g>
    <g id="ytick_135">
     <g id="line2d_162"/>
    </g>
    <g id="ytick_136">
     <g id="line2d_163"/>
    </g>
    <g id="ytick_137">
     <g id="line2d_164"/>
    </g>
    <g id="ytick_138">
     <g id="line2d_165"/>
    </g>
    <g id="ytick_139">
     <g id="line2d_166"/>
    </g>
    <g id="ytick_140">
     <g id="line2d_167"/>
    </g>
    <g id="ytick_141">
     <g id="line2d_168"/>
    </g>
    <g id="ytick_142">
     <g id="line2d_169"/>
    </g>
    <g id="ytick_143">
     <g id="line2d_170"/>
    </g>
    <g id="ytick_144">
     <g id="line2d_171"/>
    </g>
    <g id="ytick_145">
     <g id="line2d_172"/>
    </g>
    <g id="ytick_146">
     <g id="line2d_173"/>
    </g>
    <g id="ytick_147">
     <g id="line2d_174"/>
    </g>
    <g id="ytick_148">
     <g id="line2d_175"/>
    </g>
    <g id="ytick_149">
     <g id="line2d_176"/>
    </g>
    <g id="ytick_150">
     <g id="line2d_177"/>
    </g>
    <g id="ytick_151">
     <g id="line2d_178"/>
    </g>
    <g id="ytick_152">
     <g id="line2d_179"/>
    </g>
    <g id="ytick_153">
     <g id="line2d_180"/>
    </g>
    <g id="ytick_154">
     <g id="line2d_181"/>
    </g>
    <g id="ytick_155">
     <g id="line2d_182"/>
    </g>
    <g id="ytick_156">
     <g id="line2d_183"/>
    </g>
    <g id="ytick_157">
     <g id="line2d_184"/>
    </g>
    <g id="ytick_158">
     <g id="line2d_185"/>
    </g>
    <g id="ytick_159">
     <g id="line2d_186"/>
    </g>
    <g id="ytick_160">
     <g id="line2d_187"/>
    </g>
    <g id="ytick_161">
     <g id="line2d_188"/>
    </g>
    <g id="ytick_162">
     <g id="line2d_189"/>
    </g>
    <g id="ytick_163">
     <g id="line2d_190"/>
    </g>
    <g id="ytick_164">
     <g id="line2d_191"/>
    </g>
    <g id="ytick_165">
     <g id="line2d_192"/>
    </g>
    <g id="ytick_166">
     <g id="line2d_193"/>
    </g>
    <g id="ytick_167">
     <g id="line2d_194"/>
    </g>
    <g id="ytick_168">
     <g id="line2d_195"/>
    </g>
    <g id="ytick_169">
     <g id="line2d_196"/>
    </g>
    <g id="ytick_170">
     <g id="line2d_197"/>
    </g>
    <g id="ytick_171">
     <g id="line2d_198"/>
    </g>
    <g id="ytick_172">
     <g id="line2d_199"/>
    </g>
    <g id="ytick_173">
     <g id="line2d_200"/>
    </g>
    <g id="ytick_174">
     <g id="line2d_201"/>
    </g>
    <g id="ytick_175">
     <g id="line2d_202"/>
    </g>
    <g id="ytick_176">
     <g id="line2d_203"/>
    </g>
    <g id="ytick_177">
     <g id="line2d_204"/>
    </g>
    <g id="ytick_178">
     <g id="line2d_205"/>
    </g>
    <g id="ytick_179">
     <g id="line2d_206"/>
    </g>
    <g id="ytick_180">
     <g id="line2d_207"/>
    </g>
    <g id="ytick_181">
     <g id="line2d_208"/>
    </g>
    <g id="ytick_182">
     <g id="line2d_209"/>
    </g>
    <g id="ytick_183">
     <g id="line2d_210"/>
    </g>
    <g id="ytick_184">
     <g id="line2d_211"/>
    </g>
    <g id="ytick_185">
     <g id="line2d_212"/>
    </g>
    <g id="ytick_186">
     <g id="line2d_213"/>
    </g>
    <g id="ytick_187">
     <g id="line2d_214"/>
    </g>
    <g id="ytick_188">
     <g id="line2d_215"/>
    </g>
    <g id="ytick_189">
     <g id="line2d_216"/>
    </g>
    <g id="ytick_190">
     <g id="line2d_217"/>
    </g>
    <g id="ytick_191">
     <g id="line2d_218"/>
    </g>
    <g id="ytick_192">
     <g id="line2d_219"/>
    </g>
    <g id="ytick_193">
     <g id="line2d_220"/>
    </g>
    <g id="ytick_194">
     <g id="line2d_221"/>
    </g>
    <g id="ytick_195">
     <g id="line2d_222"/>
    </g>
    <g id="ytick_196">
     <g id="line2d_223"/>
    </g>
    <g id="ytick_197">
     <g id="line2d_224"/>
    </g>
    <g id="ytick_198">
     <g id="line2d_225"/>
    </g>
    <g id="ytick_199">
     <g id="line2d_226"/>
    </g>
    <g id="ytick_200">
     <g id="line2d_227"/>
    </g>
    <g id="ytick_201">
     <g id="line2d_228"/>
    </g>
    <g id="ytick_202">
     <g id="line2d_229"/>
    </g>
    <g id="ytick_203">
     <g id="line2d_230"/>
    </g>
    <g id="ytick_204">
     <g id="line2d_231"/>
    </g>
    <g id="ytick_205">
     <g id="line2d_232"/>
    </g>
    <g id="ytick_206">
     <g id="line2d_233"/>
    </g>
    <g id="ytick_207">
     <g id="line2d_234"/>
    </g>
    <g id="ytick_208">
     <g id="line2d_235"/>
    </g>
    <g id="ytick_209">
     <g id="line2d_236"/>
    </g>
    <g id="ytick_210">
     <g id="line2d_237"/>
    </g>
    <g id="ytick_211">
     <g id="line2d_238"/>
    </g>
    <g id="ytick_212">
     <g id="line2d_239"/>
    </g>
    <g id="ytick_213">
     <g id="line2d_240"/>
    </g>
    <g id="ytick_214">
     <g id="line2d_241"/>
    </g>
    <g id="ytick_215">
     <g id="line2d_242"/>
    </g>
    <g id="ytick_216">
     <g id="line2d_243"/>
    </g>
    <g id="ytick_217">
     <g id="line2d_244"/>
    </g>
    <g id="ytick_218">
     <g id="line2d_245"/>
    </g>
    <g id="ytick_219">
     <g id="line2d_246"/>
    </g>
    <g id="ytick_220">
     <g id="line2d_247"/>
    </g>
    <g id="ytick_221">
     <g id="line2d_248"/>
    </g>
    <g id="ytick_222">
     <g id="line2d_249"/>
    </g>
    <g id="ytick_223">
     <g id="line2d_250"/>
    </g>
    <g id="ytick_224">
     <g id="line2d_251"/>
    </g>
    <g id="ytick_225">
     <g id="line2d_252"/>
    </g>
    <g id="ytick_226">
     <g id="line2d_253"/>
    </g>
    <g id="ytick_227">
     <g id="line2d_254"/>
    </g>
    <g id="ytick_228">
     <g id="line2d_255"/>
    </g>
    <g id="ytick_229">
     <g id="line2d_256"/>
    </g>
    <g id="ytick_230">
     <g id="line2d_257"/>
    </g>
    <g id="ytick_231">
     <g id="line2d_258"/>
    </g>
    <g id="ytick_232">
     <g id="line2d_259"/>
    </g>
    <g id="ytick_233">
     <g id="line2d_260"/>
    </g>
    <g id="ytick_234">
     <g id="line2d_261"/>
    </g>
    <g id="ytick_235">
     <g id="line2d_262"/>
    </g>
    <g id="ytick_236">
     <g id="line2d_263"/>
    </g>
    <g id="ytick_237">
     <g id="line2d_264"/>
    </g>
    <g id="ytick_238">
     <g id="line2d_265"/>
    </g>
    <g id="ytick_239">
     <g id="line2d_266"/>
    </g>
    <g id="ytick_240">
     <g id="line2d_267"/>
    </g>
    <g id="ytick_241">
     <g id="line2d_268"/>
    </g>
    <g id="ytick_242">
     <g id="line2d_269"/>
    </g>
    <g id="ytick_243">
     <g id="line2d_270"/>
    </g>
    <g id="ytick_244">
     <g id="line2d_271"/>
    </g>
    <g id="ytick_245">
     <g id="line2d_272"/>
    </g>
    <g id="ytick_246">
     <g id="line2d_273"/>
    </g>
    <g id="ytick_247">
     <g id="line2d_274"/>
    </g>
    <g id="ytick_248">
     <g id="line2d_275"/>
    </g>
    <g id="ytick_249">
     <g id="line2d_276"/>
    </g>
    <g id="ytick_250">
     <g id="line2d_277"/>
    </g>
    <g id="ytick_251">
     <g id="line2d_278"/>
    </g>
    <g id="ytick_252">
     <g id="line2d_279"/>
    </g>
    <g id="ytick_253">
     <g id="line2d_280"/>
    </g>
    <g id="ytick_254">
     <g id="line2d_281"/>
    </g>
    <g id="ytick_255">
     <g id="line2d_282"/>
    </g>
    <g id="ytick_256">
     <g id="line2d_283"/>
    </g>
    <g id="ytick_257">
     <g id="line2d_284"/>
    </g>
    <g id="ytick_258">
     <g id="line2d_285"/>
    </g>
    <g id="ytick_259">
     <g id="line2d_286"/>
    </g>
    <g id="ytick_260">
     <g id="line2d_287"/>
    </g>
    <g id="ytick_261">
     <g id="line2d_288"/>
    </g>
    <g id="ytick_262">
     <g id="line2d_289"/>
    </g>
    <g id="ytick_263">
     <g id="line2d_290"/>
    </g>
    <g id="ytick_264">
     <g id="line2d_291"/>
    </g>
    <g id="ytick_265">
     <g id="line2d_292"/>
    </g>
    <g id="ytick_266">
     <g id="line2d_293"/>
    </g>
    <g id="ytick_267">
     <g id="line2d_294"/>
    </g>
    <g id="ytick_268">
     <g id="line2d_295"/>
    </g>
    <g id="ytick_269">
     <g id="line2d_296"/>
    </g>
    <g id="ytick_270">
     <g id="line2d_297"/>
    </g>
    <g id="ytick_271">
     <g id="line2d_298"/>
    </g>
    <g id="ytick_272">
     <g id="line2d_299"/>
    </g>
    <g id="ytick_273">
     <g id="line2d_300"/>
    </g>
    <g id="ytick_274">
     <g id="line2d_301"/>
    </g>
    <g id="ytick_275">
     <g id="line2d_302"/>
    </g>
    <g id="ytick_276">
     <g id="line2d_303"/>
    </g>
    <g id="ytick_277">
     <g id="line2d_304"/>
    </g>
    <g id="ytick_278">
     <g id="line2d_305"/>
    </g>
    <g id="ytick_279">
     <g id="line2d_306"/>
    </g>
    <g id="ytick_280">
     <g id="line2d_307"/>
    </g>
    <g id="ytick_281">
     <g id="line2d_308"/>
    </g>
    <g id="ytick_282">
     <g id="line2d_309"/>
    </g>
    <g id="ytick_283">
     <g id="line2d_310"/>
    </g>
    <g id="ytick_284">
     <g id="line2d_311"/>
    </g>
    <g id="ytick_285">
     <g id="line2d_312"/>
    </g>
    <g id="ytick_286">
     <g id="line2d_313"/>
    </g>
    <g id="ytick_287">
     <g id="line2d_314"/>
    </g>
    <g id="ytick_288">
     <g id="line2d_315"/>
    </g>
    <g id="ytick_289">
     <g id="line2d_316"/>
    </g>
    <g id="ytick_290">
     <g id="line2d_317"/>
    </g>
    <g id="ytick_291">
     <g id="line2d_318"/>
    </g>
    <g id="ytick_292">
     <g id="line2d_319"/>
    </g>
    <g id="ytick_293">
     <g id="line2d_320"/>
    </g>
    <g id="ytick_294">
     <g id="line2d_321"/>
    </g>
    <g id="ytick_295">
     <g id="line2d_322"/>
    </g>
    <g id="ytick_296">
     <g id="line2d_323"/>
    </g>
    <g id="ytick_297">
     <g id="line2d_324"/>
    </g>
    <g id="ytick_298">
     <g id="line2d_325"/>
    </g>
    <g id="ytick_299">
     <g id="line2d_326"/>
    </g>
    <g id="ytick_300">
     <g id="line2d_327"/>
    </g>
    <g id="ytick_301">
     <g id="line2d_328"/>
    </g>
    <g id="ytick_302">
     <g id="line2d_329"/>
    </g>
    <g id="ytick_303">
     <g id="line2d_330"/>
    </g>
    <g id="ytick_304">
     <g id="line2d_331"/>
    </g>
    <g id="ytick_305">
     <g id="line2d_332"/>
    </g>
    <g id="ytick_306">
     <g id="line2d_333"/>
    </g>
    <g id="ytick_307">
     <g id="line2d_334"/>
    </g>
    <g id="ytick_308">
     <g id="line2d_335"/>
    </g>
    <g id="ytick_309">
     <g id="line2d_336"/>
    </g>
    <g id="ytick_310">
     <g id="line2d_337"/>
    </g>
    <g id="ytick_311">
     <g id="line2d_338"/>
    </g>
    <g id="ytick_312">
     <g id="line2d_339"/>
    </g>
    <g id="ytick_313">
     <g id="line2d_340"/>
    </g>
    <g id="ytick_314">
     <g id="line2d_341"/>
    </g>
    <g id="ytick_315">
     <g id="line2d_342"/>
    </g>
    <g id="ytick_316">
     <g id="line2d_343"/>
    </g>
    <g id="ytick_317">
     <g id="line2d_344"/>
    </g>
    <g id="ytick_318">
     <g id="line2d_345"/>
    </g>
    <g id="ytick_319">
     <g id="line2d_346"/>
    </g>
    <g id="ytick_320">
     <g id="line2d_347"/>
    </g>
    <g id="ytick_321">
     <g id="line2d_348"/>
    </g>
    <g id="ytick_322">
     <g id="line2d_349"/>
    </g>
    <g id="ytick_323">
     <g id="line2d_350"/>
    </g>
    <g id="ytick_324">
     <g id="line2d_351"/>
    </g>
    <g id="ytick_325">
     <g id="line2d_352"/>
    </g>
    <g id="ytick_326">
     <g id="line2d_353"/>
    </g>
    <g id="ytick_327">
     <g id="line2d_354"/>
    </g>
    <g id="ytick_328">
     <g id="line2d_355"/>
    </g>
    <g id="ytick_329">
     <g id="line2d_356"/>
    </g>
    <g id="ytick_330">
     <g id="line2d_357"/>
    </g>
    <g id="ytick_331">
     <g id="line2d_358"/>
    </g>
    <g id="ytick_332">
     <g id="line2d_359"/>
    </g>
    <g id="ytick_333">
     <g id="line2d_360"/>
    </g>
    <g id="ytick_334">
     <g id="line2d_361"/>
    </g>
    <g id="ytick_335">
     <g id="line2d_362"/>
    </g>
    <g id="ytick_336">
     <g id="line2d_363"/>
    </g>
    <g id="ytick_337">
     <g id="line2d_364"/>
    </g>
    <g id="ytick_338">
     <g id="line2d_365"/>
    </g>
    <g id="ytick_339">
     <g id="line2d_366"/>
    </g>
    <g id="ytick_340">
     <g id="line2d_367"/>
    </g>
    <g id="ytick_341">
     <g id="line2d_368"/>
    </g>
    <g id="ytick_342">
     <g id="line2d_369"/>
    </g>
    <g id="ytick_343">
     <g id="line2d_370"/>
    </g>
    <g id="ytick_344">
     <g id="line2d_371"/>
    </g>
    <g id="text_23">
     <!-- Compute time -->
     <g style="fill: #262626" transform="translate(498.542372 185.897422) rotate(-90) scale(0.13 -0.13)">
      <use xlink:href="#LiberationSans-43"/>
      <use xlink:href="#LiberationSans-6f" x="72.216797"/>
      <use xlink:href="#LiberationSans-6d" x="127.832031"/>
      <use xlink:href="#LiberationSans-70" x="211.132812"/>
      <use xlink:href="#LiberationSans-75" x="266.748047"/>
      <use xlink:href="#LiberationSans-74" x="322.363281"/>
      <use xlink:href="#LiberationSans-65" x="350.146484"/>
      <use xlink:href="#LiberationSans-20" x="405.761719"/>
      <use xlink:href="#LiberationSans-74" x="433.544922"/>
      <use xlink:href="#LiberationSans-69" x="461.328125"/>
      <use xlink:href="#LiberationSans-6d" x="483.544922"/>
      <use xlink:href="#LiberationSans-65" x="566.845703"/>
     </g>
    </g>
   </g>
   <g id="PolyCollection_1"/>
   <g id="PolyCollection_2"/>
   <g id="PolyCollection_3"/>
   <g id="PolyCollection_4"/>
   <g id="PolyCollection_5"/>
   <g id="PolyCollection_6"/>
   <g id="PolyCollection_7"/>
   <g id="PolyCollection_8"/>
   <g id="line2d_372">
    <path d="M 568.611934 220.422146 
L 576.184937 219.927563 
L 584.029394 221.02902 
L 591.191856 220.364327 
L 598.820427 220.056188 
L 606.341389 218.345585 
L 613.92794 217.490533 
L 621.55903 215.318327 
L 629.144383 212.588922 
L 636.691676 210.702709 
L 644.22199 206.969391 
L 651.802837 204.464609 
L 659.377371 200.071724 
L 666.931258 195.182353 
L 674.512655 188.776601 
" clip-path="url(#pb9b424cd12)" style="fill: none; stroke: #1f77b4; stroke-width: 1.5; stroke-linecap: round"/>
    <defs>
     <path id="m40d5e69e99" d="M 0 3 
C 0.795609 3 1.55874 2.683901 2.12132 2.12132 
C 2.683901 1.55874 3 0.795609 3 0 
C 3 -0.795609 2.683901 -1.55874 2.12132 -2.12132 
C 1.55874 -2.683901 0.795609 -3 0 -3 
C -0.795609 -3 -1.55874 -2.683901 -2.12132 -2.12132 
C -2.683901 -1.55874 -3 -0.795609 -3 0 
C -3 0.795609 -2.683901 1.55874 -2.12132 2.12132 
C -1.55874 2.683901 -0.795609 3 0 3 
z
" style="stroke: #ffffff; stroke-width: 0.75"/>
    </defs>
    <g clip-path="url(#pb9b424cd12)">
     <use xlink:href="#m40d5e69e99" x="568.611934" y="220.422146" style="fill: #1f77b4; stroke: #ffffff; stroke-width: 0.75"/>
     <use xlink:href="#m40d5e69e99" x="576.184937" y="219.927563" style="fill: #1f77b4; stroke: #ffffff; stroke-width: 0.75"/>
     <use xlink:href="#m40d5e69e99" x="584.029394" y="221.02902" style="fill: #1f77b4; stroke: #ffffff; stroke-width: 0.75"/>
     <use xlink:href="#m40d5e69e99" x="591.191856" y="220.364327" style="fill: #1f77b4; stroke: #ffffff; stroke-width: 0.75"/>
     <use xlink:href="#m40d5e69e99" x="598.820427" y="220.056188" style="fill: #1f77b4; stroke: #ffffff; stroke-width: 0.75"/>
     <use xlink:href="#m40d5e69e99" x="606.341389" y="218.345585" style="fill: #1f77b4; stroke: #ffffff; stroke-width: 0.75"/>
     <use xlink:href="#m40d5e69e99" x="613.92794" y="217.490533" style="fill: #1f77b4; stroke: #ffffff; stroke-width: 0.75"/>
     <use xlink:href="#m40d5e69e99" x="621.55903" y="215.318327" style="fill: #1f77b4; stroke: #ffffff; stroke-width: 0.75"/>
     <use xlink:href="#m40d5e69e99" x="629.144383" y="212.588922" style="fill: #1f77b4; stroke: #ffffff; stroke-width: 0.75"/>
     <use xlink:href="#m40d5e69e99" x="636.691676" y="210.702709" style="fill: #1f77b4; stroke: #ffffff; stroke-width: 0.75"/>
     <use xlink:href="#m40d5e69e99" x="644.22199" y="206.969391" style="fill: #1f77b4; stroke: #ffffff; stroke-width: 0.75"/>
     <use xlink:href="#m40d5e69e99" x="651.802837" y="204.464609" style="fill: #1f77b4; stroke: #ffffff; stroke-width: 0.75"/>
     <use xlink:href="#m40d5e69e99" x="659.377371" y="200.071724" style="fill: #1f77b4; stroke: #ffffff; stroke-width: 0.75"/>
     <use xlink:href="#m40d5e69e99" x="666.931258" y="195.182353" style="fill: #1f77b4; stroke: #ffffff; stroke-width: 0.75"/>
     <use xlink:href="#m40d5e69e99" x="674.512655" y="188.776601" style="fill: #1f77b4; stroke: #ffffff; stroke-width: 0.75"/>
    </g>
   </g>
   <g id="line2d_373">
    <path d="M 568.249587 222.159486 
L 574.837544 222.03556 
L 581.425502 221.847709 
L 588.013459 221.565159 
L 594.601417 221.144972 
L 601.189374 220.530186 
L 607.777332 219.650695 
L 614.365289 218.429404 
L 620.953247 216.795149 
L 627.541204 214.700091 
L 634.129162 212.134237 
L 640.717119 209.128749 
L 647.305077 205.745935 
L 653.893034 202.06208 
L 660.480992 198.15178 
L 667.068949 194.078606 
L 673.656907 189.892032 
L 680.244864 185.628281 
L 686.832822 181.31282 
L 693.420779 176.963073 
L 700.008737 172.590753 
L 706.596694 168.203638 
L 713.184652 163.806855 
L 719.772609 159.403767 
L 726.360567 154.996574 
L 732.948524 150.586709 
L 739.536482 146.175106 
L 746.124439 141.762373 
L 752.712397 137.348906 
L 759.300354 132.934961 
L 765.888312 128.520707 
L 772.476269 124.10625 
L 779.064227 119.691663 
L 785.652184 115.276991 
L 792.240142 110.862263 
L 798.828099 106.4475 
L 805.416057 102.032713 
L 812.004014 97.617911 
L 818.591972 93.203099 
L 825.179929 88.78828 
L 831.767887 84.373458 
L 838.355844 79.958633 
L 844.943802 75.543806 
L 851.531759 71.128978 
L 858.119717 66.714149 
L 864.707674 62.299319 
L 871.295632 57.88449 
L 877.883589 53.46966 
L 884.471547 49.05483 
L 891.059504 44.64 
" clip-path="url(#pb9b424cd12)" style="fill: none; stroke-dasharray: 1.85,0.8; stroke-dashoffset: 0; stroke: #1f77b4; stroke-width: 0.5"/>
   </g>
   <g id="line2d_374">
    <path d="M 568.611934 237.224133 
L 579.701051 237.309648 
L 590.732352 237.215282 
L 601.53835 237.071266 
L 612.824698 236.854119 
L 623.678463 236.864399 
L 634.781274 236.470784 
L 645.789333 236.05322 
L 656.825263 233.493434 
L 667.835585 231.580893 
L 678.871385 226.787948 
L 689.89406 223.914536 
L 700.9188 212.843278 
L 711.945528 205.428272 
L 722.966733 198.495279 
" clip-path="url(#pb9b424cd12)" style="fill: none; stroke: #ff7f0e; stroke-width: 1.5; stroke-linecap: round"/>
    <defs>
     <path id="m1b376ccf2e" d="M 0 3 
C 0.795609 3 1.55874 2.683901 2.12132 2.12132 
C 2.683901 1.55874 3 0.795609 3 0 
C 3 -0.795609 2.683901 -1.55874 2.12132 -2.12132 
C 1.55874 -2.683901 0.795609 -3 0 -3 
C -0.795609 -3 -1.55874 -2.683901 -2.12132 -2.12132 
C -2.683901 -1.55874 -3 -0.795609 -3 0 
C -3 0.795609 -2.683901 1.55874 -2.12132 2.12132 
C -1.55874 2.683901 -0.795609 3 0 3 
z
" style="stroke: #ffffff; stroke-width: 0.75"/>
    </defs>
    <g clip-path="url(#pb9b424cd12)">
     <use xlink:href="#m1b376ccf2e" x="568.611934" y="237.224133" style="fill: #ff7f0e; stroke: #ffffff; stroke-width: 0.75"/>
     <use xlink:href="#m1b376ccf2e" x="579.701051" y="237.309648" style="fill: #ff7f0e; stroke: #ffffff; stroke-width: 0.75"/>
     <use xlink:href="#m1b376ccf2e" x="590.732352" y="237.215282" style="fill: #ff7f0e; stroke: #ffffff; stroke-width: 0.75"/>
     <use xlink:href="#m1b376ccf2e" x="601.53835" y="237.071266" style="fill: #ff7f0e; stroke: #ffffff; stroke-width: 0.75"/>
     <use xlink:href="#m1b376ccf2e" x="612.824698" y="236.854119" style="fill: #ff7f0e; stroke: #ffffff; stroke-width: 0.75"/>
     <use xlink:href="#m1b376ccf2e" x="623.678463" y="236.864399" style="fill: #ff7f0e; stroke: #ffffff; stroke-width: 0.75"/>
     <use xlink:href="#m1b376ccf2e" x="634.781274" y="236.470784" style="fill: #ff7f0e; stroke: #ffffff; stroke-width: 0.75"/>
     <use xlink:href="#m1b376ccf2e" x="645.789333" y="236.05322" style="fill: #ff7f0e; stroke: #ffffff; stroke-width: 0.75"/>
     <use xlink:href="#m1b376ccf2e" x="656.825263" y="233.493434" style="fill: #ff7f0e; stroke: #ffffff; stroke-width: 0.75"/>
     <use xlink:href="#m1b376ccf2e" x="667.835585" y="231.580893" style="fill: #ff7f0e; stroke: #ffffff; stroke-width: 0.75"/>
     <use xlink:href="#m1b376ccf2e" x="678.871385" y="226.787948" style="fill: #ff7f0e; stroke: #ffffff; stroke-width: 0.75"/>
     <use xlink:href="#m1b376ccf2e" x="689.89406" y="223.914536" style="fill: #ff7f0e; stroke: #ffffff; stroke-width: 0.75"/>
     <use xlink:href="#m1b376ccf2e" x="700.9188" y="212.843278" style="fill: #ff7f0e; stroke: #ffffff; stroke-width: 0.75"/>
     <use xlink:href="#m1b376ccf2e" x="711.945528" y="205.428272" style="fill: #ff7f0e; stroke: #ffffff; stroke-width: 0.75"/>
     <use xlink:href="#m1b376ccf2e" x="722.966733" y="198.495279" style="fill: #ff7f0e; stroke: #ffffff; stroke-width: 0.75"/>
    </g>
   </g>
   <g id="line2d_375">
    <path d="M 673.787961 228.030247 
L 678.222074 225.85159 
L 682.656187 223.516142 
L 687.0903 221.047726 
L 691.524413 218.469443 
L 695.958527 215.802316 
L 700.39264 213.064592 
L 704.826753 210.271545 
L 709.260866 207.435618 
L 713.694979 204.566736 
L 718.129092 201.672691 
L 722.563205 198.75953 
L 726.997318 195.831902 
L 731.431432 192.893355 
L 735.865545 189.946586 
L 740.299658 186.993636 
L 744.733771 184.036046 
L 749.167884 181.074973 
L 753.601997 178.111291 
L 758.03611 175.145653 
L 762.470223 172.178551 
L 766.904337 169.210351 
L 771.33845 166.241331 
L 775.772563 163.271697 
L 780.206676 160.301603 
L 784.640789 157.331164 
L 789.074902 154.360469 
L 793.509015 151.38958 
L 797.943128 148.418548 
L 802.377242 145.447407 
L 806.811355 142.476186 
L 811.245468 139.504905 
L 815.679581 136.533578 
L 820.113694 133.562218 
L 824.547807 130.590832 
L 828.98192 127.619428 
L 833.416033 124.648009 
L 837.850147 121.67658 
L 842.28426 118.705142 
L 846.718373 115.733699 
L 851.152486 112.762252 
L 855.586599 109.790801 
L 860.020712 106.819348 
L 864.454825 103.847893 
L 868.888938 100.876436 
L 873.323052 97.904978 
L 877.757165 94.93352 
L 882.191278 91.962061 
L 886.625391 88.990602 
L 891.059504 86.019142 
" clip-path="url(#pb9b424cd12)" style="fill: none; stroke-dasharray: 1.85,0.8; stroke-dashoffset: 0; stroke: #ff7f0e; stroke-width: 0.5"/>
   </g>
   <g id="line2d_376">
    <path d="M 568.611934 238.448414 
L 582.248901 238.373339 
L 595.836938 238.203441 
L 609.505229 237.349512 
L 623.041846 237.380856 
L 636.691676 237.029527 
L 650.324527 237.209369 
L 663.919318 236.095589 
L 677.549532 235.020661 
L 691.148651 232.451208 
L 704.765529 227.833612 
L 718.386526 215.220844 
L 732.000766 209.125723 
L 745.617355 202.715556 
L 759.233231 193.235011 
" clip-path="url(#pb9b424cd12)" style="fill: none; stroke: #2ca02c; stroke-width: 1.5; stroke-linecap: round"/>
    <defs>
     <path id="m07e3a01a6a" d="M 0 3 
C 0.795609 3 1.55874 2.683901 2.12132 2.12132 
C 2.683901 1.55874 3 0.795609 3 0 
C 3 -0.795609 2.683901 -1.55874 2.12132 -2.12132 
C 1.55874 -2.683901 0.795609 -3 0 -3 
C -0.795609 -3 -1.55874 -2.683901 -2.12132 -2.12132 
C -2.683901 -1.55874 -3 -0.795609 -3 0 
C -3 0.795609 -2.683901 1.55874 -2.12132 2.12132 
C -1.55874 2.683901 -0.795609 3 0 3 
z
" style="stroke: #ffffff; stroke-width: 0.75"/>
    </defs>
    <g clip-path="url(#pb9b424cd12)">
     <use xlink:href="#m07e3a01a6a" x="568.611934" y="238.448414" style="fill: #2ca02c; stroke: #ffffff; stroke-width: 0.75"/>
     <use xlink:href="#m07e3a01a6a" x="582.248901" y="238.373339" style="fill: #2ca02c; stroke: #ffffff; stroke-width: 0.75"/>
     <use xlink:href="#m07e3a01a6a" x="595.836938" y="238.203441" style="fill: #2ca02c; stroke: #ffffff; stroke-width: 0.75"/>
     <use xlink:href="#m07e3a01a6a" x="609.505229" y="237.349512" style="fill: #2ca02c; stroke: #ffffff; stroke-width: 0.75"/>
     <use xlink:href="#m07e3a01a6a" x="623.041846" y="237.380856" style="fill: #2ca02c; stroke: #ffffff; stroke-width: 0.75"/>
     <use xlink:href="#m07e3a01a6a" x="636.691676" y="237.029527" style="fill: #2ca02c; stroke: #ffffff; stroke-width: 0.75"/>
     <use xlink:href="#m07e3a01a6a" x="650.324527" y="237.209369" style="fill: #2ca02c; stroke: #ffffff; stroke-width: 0.75"/>
     <use xlink:href="#m07e3a01a6a" x="663.919318" y="236.095589" style="fill: #2ca02c; stroke: #ffffff; stroke-width: 0.75"/>
     <use xlink:href="#m07e3a01a6a" x="677.549532" y="235.020661" style="fill: #2ca02c; stroke: #ffffff; stroke-width: 0.75"/>
     <use xlink:href="#m07e3a01a6a" x="691.148651" y="232.451208" style="fill: #2ca02c; stroke: #ffffff; stroke-width: 0.75"/>
     <use xlink:href="#m07e3a01a6a" x="704.765529" y="227.833612" style="fill: #2ca02c; stroke: #ffffff; stroke-width: 0.75"/>
     <use xlink:href="#m07e3a01a6a" x="718.386526" y="215.220844" style="fill: #2ca02c; stroke: #ffffff; stroke-width: 0.75"/>
     <use xlink:href="#m07e3a01a6a" x="732.000766" y="209.125723" style="fill: #2ca02c; stroke: #ffffff; stroke-width: 0.75"/>
     <use xlink:href="#m07e3a01a6a" x="745.617355" y="202.715556" style="fill: #2ca02c; stroke: #ffffff; stroke-width: 0.75"/>
     <use xlink:href="#m07e3a01a6a" x="759.233231" y="193.235011" style="fill: #2ca02c; stroke: #ffffff; stroke-width: 0.75"/>
    </g>
   </g>
   <g id="line2d_377">
    <path d="M 673.787961 233.503112 
L 678.222074 232.87863 
L 682.656187 232.099248 
L 687.0903 231.142245 
L 691.524413 229.988481 
L 695.958527 228.624906 
L 700.39264 227.046508 
L 704.826753 225.257101 
L 709.260866 223.26872 
L 713.694979 221.099811 
L 718.129092 218.772754 
L 722.563205 216.31136 
L 726.997318 213.738815 
L 731.431432 211.076285 
L 735.865545 208.342187 
L 740.299658 205.551965 
L 744.733771 202.718217 
L 749.167884 199.851004 
L 753.601997 196.958231 
L 758.03611 194.046033 
L 762.470223 191.119133 
L 766.904337 188.181135 
L 771.33845 185.234779 
L 775.772563 182.28214 
L 780.206676 179.324782 
L 784.640789 176.363884 
L 789.074902 173.400333 
L 793.509015 170.434793 
L 797.943128 167.467764 
L 802.377242 164.49962 
L 806.811355 161.530641 
L 811.245468 158.561037 
L 815.679581 155.590966 
L 820.113694 152.620545 
L 824.547807 149.649862 
L 828.98192 146.678983 
L 833.416033 143.707958 
L 837.850147 140.736823 
L 842.28426 137.765606 
L 846.718373 134.794327 
L 851.152486 131.823003 
L 855.586599 128.851644 
L 860.020712 125.88026 
L 864.454825 122.908856 
L 868.888938 119.937438 
L 873.323052 116.96601 
L 877.757165 113.994573 
L 882.191278 111.02313 
L 886.625391 108.051683 
L 891.059504 105.080232 
" clip-path="url(#pb9b424cd12)" style="fill: none; stroke-dasharray: 1.85,0.8; stroke-dashoffset: 0; stroke: #2ca02c; stroke-width: 0.5"/>
   </g>
   <g id="line2d_378">
    <path d="M 568.611934 246.24 
L 581.631577 246.184866 
L 595.043218 246.159105 
L 608.486585 246.003921 
L 621.727386 245.884937 
L 634.999535 245.716855 
L 648.282131 245.417714 
L 661.505132 244.67458 
L 674.780044 243.250313 
L 688.073135 241.770194 
L 701.343376 237.124422 
L 714.613054 228.71345 
L 727.884117 219.422911 
L 741.154063 211.815306 
L 754.428287 203.518908 
" clip-path="url(#pb9b424cd12)" style="fill: none; stroke: #d62728; stroke-width: 1.5; stroke-linecap: round"/>
    <defs>
     <path id="m321779b93f" d="M 0 3 
C 0.795609 3 1.55874 2.683901 2.12132 2.12132 
C 2.683901 1.55874 3 0.795609 3 0 
C 3 -0.795609 2.683901 -1.55874 2.12132 -2.12132 
C 1.55874 -2.683901 0.795609 -3 0 -3 
C -0.795609 -3 -1.55874 -2.683901 -2.12132 -2.12132 
C -2.683901 -1.55874 -3 -0.795609 -3 0 
C -3 0.795609 -2.683901 1.55874 -2.12132 2.12132 
C -1.55874 2.683901 -0.795609 3 0 3 
z
" style="stroke: #ffffff; stroke-width: 0.75"/>
    </defs>
    <g clip-path="url(#pb9b424cd12)">
     <use xlink:href="#m321779b93f" x="568.611934" y="246.24" style="fill: #d62728; stroke: #ffffff; stroke-width: 0.75"/>
     <use xlink:href="#m321779b93f" x="581.631577" y="246.184866" style="fill: #d62728; stroke: #ffffff; stroke-width: 0.75"/>
     <use xlink:href="#m321779b93f" x="595.043218" y="246.159105" style="fill: #d62728; stroke: #ffffff; stroke-width: 0.75"/>
     <use xlink:href="#m321779b93f" x="608.486585" y="246.003921" style="fill: #d62728; stroke: #ffffff; stroke-width: 0.75"/>
     <use xlink:href="#m321779b93f" x="621.727386" y="245.884937" style="fill: #d62728; stroke: #ffffff; stroke-width: 0.75"/>
     <use xlink:href="#m321779b93f" x="634.999535" y="245.716855" style="fill: #d62728; stroke: #ffffff; stroke-width: 0.75"/>
     <use xlink:href="#m321779b93f" x="648.282131" y="245.417714" style="fill: #d62728; stroke: #ffffff; stroke-width: 0.75"/>
     <use xlink:href="#m321779b93f" x="661.505132" y="244.67458" style="fill: #d62728; stroke: #ffffff; stroke-width: 0.75"/>
     <use xlink:href="#m321779b93f" x="674.780044" y="243.250313" style="fill: #d62728; stroke: #ffffff; stroke-width: 0.75"/>
     <use xlink:href="#m321779b93f" x="688.073135" y="241.770194" style="fill: #d62728; stroke: #ffffff; stroke-width: 0.75"/>
     <use xlink:href="#m321779b93f" x="701.343376" y="237.124422" style="fill: #d62728; stroke: #ffffff; stroke-width: 0.75"/>
     <use xlink:href="#m321779b93f" x="714.613054" y="228.71345" style="fill: #d62728; stroke: #ffffff; stroke-width: 0.75"/>
     <use xlink:href="#m321779b93f" x="727.884117" y="219.422911" style="fill: #d62728; stroke: #ffffff; stroke-width: 0.75"/>
     <use xlink:href="#m321779b93f" x="741.154063" y="211.815306" style="fill: #d62728; stroke: #ffffff; stroke-width: 0.75"/>
     <use xlink:href="#m321779b93f" x="754.428287" y="203.518908" style="fill: #d62728; stroke: #ffffff; stroke-width: 0.75"/>
    </g>
   </g>
   <g id="line2d_379">
    <path d="M 673.787961 242.912499 
L 678.222074 242.1256 
L 682.656187 241.160124 
L 687.0903 239.997151 
L 691.524413 238.623959 
L 695.958527 237.035925 
L 700.39264 235.237257 
L 704.826753 233.240323 
L 709.260866 231.063803 
L 713.694979 228.730192 
L 718.129092 226.263314 
L 722.563205 223.686286 
L 726.997318 221.020165 
L 731.431432 218.283234 
L 735.865545 215.490804 
L 740.299658 212.655354 
L 744.733771 209.786836 
L 749.167884 206.893069 
L 753.601997 203.980119 
L 758.03611 201.052649 
L 762.470223 198.114222 
L 766.904337 195.167544 
L 771.33845 192.214662 
L 775.772563 189.257122 
L 780.206676 186.296088 
L 784.640789 183.332434 
L 789.074902 180.366817 
L 793.509015 177.399731 
L 797.943128 174.431544 
L 802.377242 171.462533 
L 806.811355 168.492905 
L 811.245468 165.522816 
L 815.679581 162.552381 
L 820.113694 159.581688 
L 824.547807 156.610802 
L 828.98192 153.639771 
L 833.416033 150.668632 
L 837.850147 147.697411 
L 842.28426 144.726131 
L 846.718373 141.754805 
L 851.152486 138.783445 
L 855.586599 135.812059 
L 860.020712 132.840655 
L 864.454825 129.869236 
L 868.888938 126.897807 
L 873.323052 123.92637 
L 877.757165 120.954927 
L 882.191278 117.98348 
L 886.625391 115.012029 
L 891.059504 112.040576 
" clip-path="url(#pb9b424cd12)" style="fill: none; stroke-dasharray: 1.85,0.8; stroke-dashoffset: 0; stroke: #d62728; stroke-width: 0.5"/>
   </g>
   <g id="line2d_380">
    <path d="M 855.880046 256.32 
L 855.880046 34.56 
" clip-path="url(#pb9b424cd12)" style="fill: none; stroke-dasharray: 1.5,2.475; stroke-dashoffset: 0; stroke: #ff0000; stroke-width: 1.5"/>
   </g>
   <g id="patch_16">
    <path d="M 552.109091 256.32 
L 552.109091 34.56 
" style="fill: none; stroke: #cccccc; stroke-linejoin: miter; stroke-linecap: square"/>
   </g>
   <g id="patch_17">
    <path d="M 907.2 256.32 
L 907.2 34.56 
" style="fill: none; stroke: #cccccc; stroke-linejoin: miter; stroke-linecap: square"/>
   </g>
   <g id="patch_18">
    <path d="M 552.109091 256.32 
L 907.2 256.32 
" style="fill: none; stroke: #cccccc; stroke-linejoin: miter; stroke-linecap: square"/>
   </g>
   <g id="patch_19">
    <path d="M 552.109091 34.56 
L 907.2 34.56 
" style="fill: none; stroke: #cccccc; stroke-linejoin: miter; stroke-linecap: square"/>
   </g>
   <g id="text_24">
    <!-- Target -->
    <g style="fill: #262626" transform="translate(870.441689 238.787734) rotate(-90) scale(0.13 -0.13)">
     <use xlink:href="#LiberationSans-54"/>
     <use xlink:href="#LiberationSans-61" x="49.958984"/>
     <use xlink:href="#LiberationSans-72" x="105.574219"/>
     <use xlink:href="#LiberationSans-67" x="138.875"/>
     <use xlink:href="#LiberationSans-65" x="194.490234"/>
     <use xlink:href="#LiberationSans-74" x="250.105469"/>
    </g>
   </g>
   <g id="legend_2">
    <g id="line2d_381">
     <path d="M 563.809091 51.130938 
L 576.809091 51.130938 
L 589.809091 51.130938 
" style="fill: none; stroke: #1f77b4; stroke-width: 1.5; stroke-linecap: round"/>
     <g>
      <use xlink:href="#m40d5e69e99" x="576.809091" y="51.130938" style="fill: #1f77b4; stroke: #ffffff; stroke-width: 0.75"/>
     </g>
    </g>
    <g id="text_25">
     <!-- MatchMS -->
     <g style="fill: #262626" transform="translate(600.209091 55.680938) scale(0.13 -0.13)">
      <use xlink:href="#LiberationSans-4d"/>
      <use xlink:href="#LiberationSans-61" x="83.300781"/>
      <use xlink:href="#LiberationSans-74" x="138.916016"/>
      <use xlink:href="#LiberationSans-63" x="166.699219"/>
      <use xlink:href="#LiberationSans-68" x="216.699219"/>
      <use xlink:href="#LiberationSans-4d" x="272.314453"/>
      <use xlink:href="#LiberationSans-53" x="355.615234"/>
     </g>
    </g>
    <g id="line2d_382">
     <path d="M 563.809091 69.749375 
L 576.809091 69.749375 
L 589.809091 69.749375 
" style="fill: none; stroke: #ff7f0e; stroke-width: 1.5; stroke-linecap: round"/>
     <g>
      <use xlink:href="#m1b376ccf2e" x="576.809091" y="69.749375" style="fill: #ff7f0e; stroke: #ffffff; stroke-width: 0.75"/>
     </g>
    </g>
    <g id="text_26">
     <!-- T4 -->
     <g style="fill: #262626" transform="translate(600.209091 74.299375) scale(0.13 -0.13)">
      <use xlink:href="#LiberationSans-54"/>
      <use xlink:href="#LiberationSans-34" x="61.083984"/>
     </g>
    </g>
    <g id="line2d_383">
     <path d="M 563.809091 88.367813 
L 576.809091 88.367813 
L 589.809091 88.367813 
" style="fill: none; stroke: #2ca02c; stroke-width: 1.5; stroke-linecap: round"/>
     <g>
      <use xlink:href="#m07e3a01a6a" x="576.809091" y="88.367813" style="fill: #2ca02c; stroke: #ffffff; stroke-width: 0.75"/>
     </g>
    </g>
    <g id="text_27">
     <!-- RTX4090 -->
     <g style="fill: #262626" transform="translate(600.209091 92.917813) scale(0.13 -0.13)">
      <use xlink:href="#LiberationSans-52"/>
      <use xlink:href="#LiberationSans-54" x="70.466797"/>
      <use xlink:href="#LiberationSans-58" x="131.550781"/>
      <use xlink:href="#LiberationSans-34" x="198.25"/>
      <use xlink:href="#LiberationSans-30" x="253.865234"/>
      <use xlink:href="#LiberationSans-39" x="309.480469"/>
      <use xlink:href="#LiberationSans-30" x="365.095703"/>
     </g>
    </g>
    <g id="line2d_384">
     <path d="M 563.809091 106.98625 
L 576.809091 106.98625 
L 589.809091 106.98625 
" style="fill: none; stroke: #d62728; stroke-width: 1.5; stroke-linecap: round"/>
     <g>
      <use xlink:href="#m321779b93f" x="576.809091" y="106.98625" style="fill: #d62728; stroke: #ffffff; stroke-width: 0.75"/>
     </g>
    </g>
    <g id="text_28">
     <!-- A100PCIE -->
     <g style="fill: #262626" transform="translate(600.209091 111.53625) scale(0.13 -0.13)">
      <use xlink:href="#LiberationSans-41"/>
      <use xlink:href="#LiberationSans-31" x="66.699219"/>
      <use xlink:href="#LiberationSans-30" x="122.314453"/>
      <use xlink:href="#LiberationSans-30" x="177.929688"/>
      <use xlink:href="#LiberationSans-50" x="233.544922"/>
      <use xlink:href="#LiberationSans-43" x="300.244141"/>
      <use xlink:href="#LiberationSans-49" x="372.460938"/>
      <use xlink:href="#LiberationSans-45" x="400.244141"/>
     </g>
    </g>
   </g>
  </g>
 </g>
 <defs>
  <clipPath id="p59666f1c3a">
   <rect x="126" y="34.56" width="355.090909" height="221.76"/>
  </clipPath>
  <clipPath id="pb9b424cd12">
   <rect x="552.109091" y="34.56" width="355.090909" height="221.76"/>
  </clipPath>
 </defs>
</svg>
